<svg xmlns="http://www.w3.org/2000/svg" xmlns:xlink="http://www.w3.org/1999/xlink" viewBox="0 0 76.52 127.54"><defs><style>.cls-1{fill:url(#linear-gradient);}.cls-2{fill:url(#linear-gradient-2);}</style><linearGradient id="linear-gradient" y1="63.77" x2="76.52" y2="63.77" gradientUnits="userSpaceOnUse"><stop offset="0.01" stop-color="#0a26e8"/><stop offset="1" stop-color="#007aff"/></linearGradient><linearGradient id="linear-gradient-2" x1="10.6" y1="21.26" x2="31.88" y2="21.26" xlink:href="#linear-gradient"/></defs><g id="Layer_2" data-name="Layer 2"><g id="Layer_2-2" data-name="Layer 2"><path class="cls-1" d="M65.89,59.52H63.77V55.27h2.12a6.38,6.38,0,0,0,6.38-6.38V12.36A6.36,6.36,0,0,0,70.14,0H6.38A6.36,6.36,0,0,0,4.25,12.36V48.89a6.38,6.38,0,0,0,6.38,6.38h2.12v4.25H10.63A10.64,10.64,0,0,0,0,70.14a2.13,2.13,0,0,0,2.13,2.13,35.92,35.92,0,0,0,21.25,32.9v20.24a2.13,2.13,0,0,0,2.13,2.13H51a2.13,2.13,0,0,0,2.13-2.13V105.17A36,36,0,0,0,74.4,72.27a2.12,2.12,0,0,0,2.12-2.13A10.64,10.64,0,0,0,65.89,59.52ZM4.25,6.38A2.13,2.13,0,0,1,6.38,4.25H70.14a2.13,2.13,0,1,1,0,4.25H6.38A2.12,2.12,0,0,1,4.25,6.38ZM10.63,51A2.12,2.12,0,0,1,8.5,48.89V12.75H68V48.89A2.12,2.12,0,0,1,65.89,51Zm48.89,4.26v4.25H17V55.27Zm-31.89,68V106.82l.2.05.64.17c.78.22,1.56.42,2.36.58l1.14.22c.66.11,1.32.21,2,.28l1.22.14c.86.07,1.73.11,2.6.12l.48,0,.48,0c.87,0,1.74,0,2.6-.12l1.22-.14c.66-.08,1.32-.17,2-.28l1.16-.21c.78-.16,1.54-.36,2.3-.57l.71-.19.19-.05v16.46Zm22.58-21.45a32.09,32.09,0,0,1-18.05,1.74A32,32,0,0,1,6.38,72.27H70.14A31.74,31.74,0,0,1,50.21,101.83ZM4.61,68a6.39,6.39,0,0,1,6-4.25H65.89a6.39,6.39,0,0,1,6,4.25Z"/><path class="cls-2" d="M29.76,19.13H23a6.38,6.38,0,1,0,0,4.25h6.77a2.13,2.13,0,0,0,0-4.25ZM17,23.38a2.13,2.13,0,1,1,2.13-2.12A2.12,2.12,0,0,1,17,23.38Z"/></g></g></svg>