<svg xmlns="http://www.w3.org/2000/svg" xmlns:xlink="http://www.w3.org/1999/xlink" viewBox="0 0 124.7 124.7"><defs><style>.cls-1{fill:url(#linear-gradient);}.cls-2{fill:url(#linear-gradient-2);}.cls-3{fill:url(#linear-gradient-3);}.cls-4{fill:url(#linear-gradient-4);}.cls-5{fill:url(#linear-gradient-5);}.cls-6{fill:url(#linear-gradient-6);}.cls-7{fill:url(#linear-gradient-7);}.cls-8{fill:url(#linear-gradient-8);}</style><linearGradient id="linear-gradient" y1="62.35" x2="62.35" y2="62.35" gradientUnits="userSpaceOnUse"><stop offset="0.01" stop-color="#0a26e8"/><stop offset="1" stop-color="#007aff"/></linearGradient><linearGradient id="linear-gradient-2" x1="20.78" y1="72.74" x2="27.02" y2="72.74" xlink:href="#linear-gradient"/><linearGradient id="linear-gradient-3" x1="14.55" y1="16.61" x2="27.04" y2="16.61" xlink:href="#linear-gradient"/><linearGradient id="linear-gradient-4" x1="12.44" y1="23.9" x2="39.51" y2="23.9" xlink:href="#linear-gradient"/><linearGradient id="linear-gradient-5" x1="66.51" y1="87.29" x2="124.7" y2="87.29" xlink:href="#linear-gradient"/><linearGradient id="linear-gradient-6" x1="70.66" y1="29.1" x2="124.7" y2="29.1" xlink:href="#linear-gradient"/><linearGradient id="linear-gradient-7" x1="87.29" y1="22.86" x2="93.53" y2="22.86" xlink:href="#linear-gradient"/><linearGradient id="linear-gradient-8" x1="101.84" y1="22.86" x2="108.07" y2="22.86" xlink:href="#linear-gradient"/></defs><g id="Layer_2" data-name="Layer 2"><g id="Layer_1-2" data-name="Layer 1"><path class="cls-1" d="M1.27,73.59A20.8,20.8,0,0,0,20.54,87.28l-3.9,35.11a2.08,2.08,0,0,0,2.07,2.31H43.65a2.08,2.08,0,0,0,2.06-2.31l-3.9-35.11A20.8,20.8,0,0,0,62.35,66.51V64.43a2.08,2.08,0,0,0-2.08-2.08h-15a34.24,34.24,0,0,0,15-29.1C60.27,14.92,47.22,0,31.18,0S2.08,14.92,2.08,33.25a34.24,34.24,0,0,0,15,29.1h-15A2.08,2.08,0,0,0,0,64.43v2.08a20.51,20.51,0,0,0,1.23,7A.49.49,0,0,0,1.27,73.59Zm19.76,47,3.69-33.25H37.63l3.69,33.25ZM6.24,33.25c0-16,11.18-29.09,24.94-29.09S56.12,17.21,56.12,33.25s-11.19,29.1-24.94,29.1A21.52,21.52,0,0,1,27,61.91V52a2.08,2.08,0,0,1,2.08-2.08h2.08A2.08,2.08,0,0,1,33.25,52a2.08,2.08,0,0,0,4.16,0,6.25,6.25,0,0,0-6.23-6.24H29.1A6.26,6.26,0,0,0,22.86,52v8.69C13.19,56.65,6.24,45.89,6.24,33.25Zm52,33.26A16.63,16.63,0,0,1,41.57,83.13H20.78A16.59,16.59,0,0,1,6.41,74.82h8.14a2.08,2.08,0,0,0,0-4.16H4.7a16.58,16.58,0,0,1-.54-4.15Z"/><path class="cls-2" d="M22.86,74.82h2.08a2.08,2.08,0,0,0,0-4.16H22.86a2.08,2.08,0,0,0,0,4.16Z"/><path class="cls-3" d="M16.63,22.86a2.08,2.08,0,0,0,1.47-.61l8.31-8.31A2.08,2.08,0,1,0,23.47,11l-8.31,8.31a2.08,2.08,0,0,0,1.47,3.55Z"/><path class="cls-4" d="M38.88,13.94A2.08,2.08,0,1,0,35.94,11L13.08,33.86A2.08,2.08,0,1,0,16,36.8Z"/><path class="cls-5" d="M122.62,72.74h-2.08V70.66a2.08,2.08,0,0,0-4.15,0v2.08h-4.16V70.66A6.23,6.23,0,0,0,106,64.43H85.21A6.23,6.23,0,0,0,79,70.66v2.08H74.82V70.66a2.08,2.08,0,0,0-4.16,0v2.08H68.59a2.08,2.08,0,1,0,0,4.16h2.07V79a2.08,2.08,0,0,0,4.16,0V76.9H79V106a4.15,4.15,0,0,0,4.15,4.15H99.76a4.15,4.15,0,0,0,4.16-4.15v-2.08h4.15a4.16,4.16,0,0,0,4.16-4.16V76.9h4.16V79a2.08,2.08,0,1,0,4.15,0V76.9h2.08a2.08,2.08,0,1,0,0-4.16Zm-18.7-2.08a2.08,2.08,0,0,1,4.15,0v2.08h-4.15ZM99.76,106H83.13V70.66a2.08,2.08,0,0,1,2.08-2.07h14.93a6.32,6.32,0,0,0-.38,2.07Zm8.31-6.24h-4.15V76.9h4.15Z"/><path class="cls-6" d="M120.54,0H74.82a4.17,4.17,0,0,0-4.16,4.16V54a4.17,4.17,0,0,0,4.16,4.15h45.72A4.15,4.15,0,0,0,124.7,54V4.16A4.16,4.16,0,0,0,120.54,0Zm0,41.57H99.76V4.16h20.78ZM95.6,4.16V41.57H74.82V4.16ZM74.82,54V45.72h45.73V54Z"/><path class="cls-7" d="M89.37,24.94h2.08a2.08,2.08,0,0,0,0-4.16H89.37a2.08,2.08,0,1,0,0,4.16Z"/><path class="cls-8" d="M103.92,24.94H106a2.08,2.08,0,0,0,0-4.16h-2.08a2.08,2.08,0,1,0,0,4.16Z"/></g></g></svg>