<svg xmlns="http://www.w3.org/2000/svg" xmlns:xlink="http://www.w3.org/1999/xlink" viewBox="0 0 117.92 126.35"><defs><style>.cls-1{fill:url(#linear-gradient);}</style><linearGradient id="linear-gradient" y1="63.18" x2="117.92" y2="63.18" gradientUnits="userSpaceOnUse"><stop offset="0.01" stop-color="#0a26e8"/><stop offset="1" stop-color="#007aff"/></linearGradient></defs><g id="Layer_2" data-name="Layer 2"><g id="Layer_2-2" data-name="Layer 2"><g id="Page-1"><g id="_024---Sink" data-name="024---Sink"><path id="Shape" class="cls-1" d="M40,33.69H31.59A6.32,6.32,0,0,0,25.27,40v6.32H6.32a6.3,6.3,0,0,0-2,12.27A35.82,35.82,0,0,0,40,92.66h6.32V99a6.3,6.3,0,0,0,4.21,5.93v13a8.43,8.43,0,0,0,16.85,0v-13A6.31,6.31,0,0,0,71.6,99V92.66h6.31A35.81,35.81,0,0,0,113.62,58.6a6.3,6.3,0,0,0-2-12.27h-19V40a6.31,6.31,0,0,0-6.31-6.32H77.91A6.32,6.32,0,0,0,71.6,40v6.32H65.28V16.85A16.87,16.87,0,0,0,46.22.14,17.15,17.15,0,0,0,31.59,17.36V19a4.21,4.21,0,0,0,4.21,4.22H40A4.21,4.21,0,0,0,44.22,19v-2.1a4.21,4.21,0,0,1,5.07-4.13,4.39,4.39,0,0,1,3.35,4.38V46.33H46.33V40A6.32,6.32,0,0,0,40,33.69ZM29.48,40a2.1,2.1,0,0,1,2.11-2.1H40A2.11,2.11,0,0,1,42.12,40v6.32H29.48Zm33.69,77.92a4.21,4.21,0,0,1-8.42,0V105.29h8.42Zm4.22-19a2.11,2.11,0,0,1-2.11,2.11H52.64A2.1,2.1,0,0,1,50.54,99V92.66H67.39ZM77.91,88.45H40A31.64,31.64,0,0,1,8.49,59H109.43A31.64,31.64,0,0,1,77.91,88.45Zm35.8-35.8a2.1,2.1,0,0,1-2.1,2.1H6.32a2.11,2.11,0,1,1,0-4.21H111.61A2.1,2.1,0,0,1,113.71,52.65ZM75.81,40a2.1,2.1,0,0,1,2.1-2.1h8.43a2.1,2.1,0,0,1,2.1,2.1v6.32H75.81ZM50.09,8.59A8.42,8.42,0,0,0,40,16.85V19H35.8V17.36a12.93,12.93,0,0,1,11-13A12.66,12.66,0,0,1,61.07,16.85V46.33H56.86V17.1A8.57,8.57,0,0,0,50.09,8.59Z"/></g></g></g></g></svg>