<svg xmlns="http://www.w3.org/2000/svg" xmlns:xlink="http://www.w3.org/1999/xlink" viewBox="0 0 122.09 126.33"><defs><style>.cls-1{fill:url(#linear-gradient);}.cls-2{fill:url(#linear-gradient-2);}.cls-3{fill:url(#linear-gradient-3);}.cls-4{fill:url(#linear-gradient-4);}.cls-5{fill:url(#linear-gradient-5);}.cls-6{fill:url(#linear-gradient-6);}.cls-7{fill:url(#linear-gradient-7);}.cls-8{fill:url(#linear-gradient-8);}.cls-9{fill:url(#linear-gradient-9);}.cls-10{fill:url(#linear-gradient-10);}.cls-11{fill:url(#linear-gradient-11);}.cls-12{fill:url(#linear-gradient-12);}.cls-13{fill:url(#linear-gradient-13);}.cls-14{fill:url(#linear-gradient-14);}.cls-15{fill:url(#linear-gradient-15);}.cls-16{fill:url(#linear-gradient-16);}.cls-17{fill:url(#linear-gradient-17);}.cls-18{fill:url(#linear-gradient-18);}.cls-19{fill:url(#linear-gradient-19);}.cls-20{fill:url(#linear-gradient-20);}.cls-21{fill:url(#linear-gradient-21);}.cls-22{fill:url(#linear-gradient-22);}.cls-23{fill:url(#linear-gradient-23);}.cls-24{fill:url(#linear-gradient-24);}.cls-25{fill:url(#linear-gradient-25);}.cls-26{fill:url(#linear-gradient-26);}</style><linearGradient id="linear-gradient" x1="45.82" y1="85.39" x2="50.74" y2="85.39" gradientUnits="userSpaceOnUse"><stop offset="0.01" stop-color="#0a26e8"/><stop offset="1" stop-color="#007aff"/></linearGradient><linearGradient id="linear-gradient-2" x1="44.65" y1="97.93" x2="49.1" y2="97.93" xlink:href="#linear-gradient"/><linearGradient id="linear-gradient-3" x1="42.78" y1="111.54" x2="47.92" y2="111.54" xlink:href="#linear-gradient"/><linearGradient id="linear-gradient-4" x1="41.84" y1="123.05" x2="46.28" y2="123.05" xlink:href="#linear-gradient"/><linearGradient id="linear-gradient-5" x1="66.86" y1="85.39" x2="71.78" y2="85.39" xlink:href="#linear-gradient"/><linearGradient id="linear-gradient-6" x1="68.5" y1="97.94" x2="72.95" y2="97.94" xlink:href="#linear-gradient"/><linearGradient id="linear-gradient-7" x1="69.68" y1="111.54" x2="74.83" y2="111.54" xlink:href="#linear-gradient"/><linearGradient id="linear-gradient-8" x1="71.33" y1="123.05" x2="75.78" y2="123.05" xlink:href="#linear-gradient"/><linearGradient id="linear-gradient-9" x1="56.81" y1="83.17" x2="61.03" y2="83.17" xlink:href="#linear-gradient"/><linearGradient id="linear-gradient-10" x1="56.81" y1="96.86" x2="61.03" y2="96.86" xlink:href="#linear-gradient"/><linearGradient id="linear-gradient-11" x1="56.81" y1="121.07" x2="61.03" y2="121.07" xlink:href="#linear-gradient"/><linearGradient id="linear-gradient-12" x1="56.81" y1="108.44" x2="61.03" y2="108.44" xlink:href="#linear-gradient"/><linearGradient id="linear-gradient-13" x1="35.33" y1="83.57" x2="39.96" y2="83.57" xlink:href="#linear-gradient"/><linearGradient id="linear-gradient-14" x1="31.96" y1="96.96" x2="37.87" y2="96.96" xlink:href="#linear-gradient"/><linearGradient id="linear-gradient-15" x1="27.35" y1="120.68" x2="32.83" y2="120.68" xlink:href="#linear-gradient"/><linearGradient id="linear-gradient-16" x1="30.29" y1="108.31" x2="34.93" y2="108.31" xlink:href="#linear-gradient"/><linearGradient id="linear-gradient-17" x1="77.85" y1="83.53" x2="82.5" y2="83.53" xlink:href="#linear-gradient"/><linearGradient id="linear-gradient-18" x1="79.96" y1="96.96" x2="85.86" y2="96.96" xlink:href="#linear-gradient"/><linearGradient id="linear-gradient-19" x1="84.99" y1="120.69" x2="90.48" y2="120.69" xlink:href="#linear-gradient"/><linearGradient id="linear-gradient-20" x1="82.9" y1="108.31" x2="87.54" y2="108.31" xlink:href="#linear-gradient"/><linearGradient id="linear-gradient-21" x1="33.65" y1="37.9" x2="122.09" y2="37.9" xlink:href="#linear-gradient"/><linearGradient id="linear-gradient-22" x1="96.82" y1="76.85" x2="115.75" y2="76.85" xlink:href="#linear-gradient"/><linearGradient id="linear-gradient-23" x1="103.14" y1="111.59" x2="115.77" y2="111.59" xlink:href="#linear-gradient"/><linearGradient id="linear-gradient-24" x1="16.81" y1="56.85" x2="29.44" y2="56.85" xlink:href="#linear-gradient"/><linearGradient id="linear-gradient-25" x1="0" y1="77.91" x2="18.91" y2="77.91" xlink:href="#linear-gradient"/><linearGradient id="linear-gradient-26" x1="4.18" y1="109.49" x2="21.02" y2="109.49" xlink:href="#linear-gradient"/></defs><g id="Layer_2" data-name="Layer 2"><g id="Layer_2-2" data-name="Layer 2"><path class="cls-1" d="M47.93,90.63A2.11,2.11,0,0,0,50,88.76l.7-6.28A2.1,2.1,0,1,0,46.54,82l-.71,6.28a2.11,2.11,0,0,0,1.86,2.32Z"/><path class="cls-2" d="M44.9,96.66l-.24,2.09a2.11,2.11,0,0,0,1.86,2.32h.24a2.1,2.1,0,0,0,2.09-1.87l.23-2.09a2.1,2.1,0,1,0-4.18-.47Z"/><path class="cls-3" d="M43.72,107.12l-.93,8.37a2.1,2.1,0,0,0,1.86,2.33h.23A2.1,2.1,0,0,0,47,116l.94-8.37a2.11,2.11,0,0,0-4.19-.47Z"/><path class="cls-4" d="M41.85,123.86a2.1,2.1,0,0,0,1.86,2.33H44A2.1,2.1,0,0,0,46,124.33l.23-2.09a2.11,2.11,0,0,0-4.19-.47Z"/><path class="cls-5" d="M68.73,80.15a2.11,2.11,0,0,0-1.85,2.33l.7,6.28a2.11,2.11,0,0,0,2.09,1.87h.24a2.11,2.11,0,0,0,1.86-2.32L71.06,82a2.12,2.12,0,0,0-2.33-1.87Z"/><path class="cls-6" d="M70.37,94.8a2.1,2.1,0,0,0-1.85,2.33l.23,2.09a2.1,2.1,0,0,0,2.09,1.87h.24a2.11,2.11,0,0,0,1.86-2.32l-.24-2.09a2.1,2.1,0,0,0-2.33-1.87Z"/><path class="cls-7" d="M71.55,105.27a2.1,2.1,0,0,0-1.86,2.31l.94,8.37a2.1,2.1,0,0,0,2.09,1.87H73a2.1,2.1,0,0,0,1.86-2.33l-.95-8.36A2.09,2.09,0,0,0,71.55,105.27Z"/><path class="cls-8" d="M71.34,122.24l.24,2.09a2.1,2.1,0,0,0,2.09,1.87h.23a2.1,2.1,0,0,0,1.86-2.33l-.23-2.09a2.11,2.11,0,0,0-4.19.47Z"/><path class="cls-9" d="M58.92,86.33A2.11,2.11,0,0,0,61,84.22v-2.1a2.11,2.11,0,1,0-4.22,0v2.1A2.11,2.11,0,0,0,58.92,86.33Z"/><path class="cls-10" d="M56.81,101.07a2.11,2.11,0,0,0,4.22,0V92.64a2.11,2.11,0,0,0-4.22,0Z"/><path class="cls-11" d="M56.81,124.23a2.11,2.11,0,0,0,4.22,0v-6.32a2.11,2.11,0,0,0-4.22,0Z"/><path class="cls-12" d="M56.81,109.49a2.11,2.11,0,0,0,4.22,0v-2.11a2.11,2.11,0,0,0-4.22,0Z"/><path class="cls-13" d="M38.27,80.48a2.1,2.1,0,0,0-2.48,1.64l-.42,2.06a2.17,2.17,0,0,0,.3,1.59,2.13,2.13,0,0,0,1.34.9,3,3,0,0,0,.42,0A2.11,2.11,0,0,0,39.49,85L39.91,83a2.09,2.09,0,0,0-1.64-2.48Z"/><path class="cls-14" d="M33.69,92.43,32,100.69a2,2,0,0,0,.3,1.58,2.11,2.11,0,0,0,1.34.9,2,2,0,0,0,.43,0,2.1,2.1,0,0,0,2.06-1.68l1.68-8.25a2.1,2.1,0,0,0-.64-2,2.13,2.13,0,0,0-2.09-.43,2.09,2.09,0,0,0-1.39,1.62Z"/><path class="cls-15" d="M28.65,117.2l-1.26,6.19A2.11,2.11,0,0,0,29,125.87a2,2,0,0,0,.43,0,2.13,2.13,0,0,0,2.06-1.68L32.78,118a2.11,2.11,0,1,0-4.13-.85Z"/><path class="cls-16" d="M30.75,106.88l-.42,2.06A2.12,2.12,0,0,0,32,111.43a3,3,0,0,0,.43,0,2.12,2.12,0,0,0,2.06-1.69l.42-2.06a2.12,2.12,0,0,0-.65-2,2.11,2.11,0,0,0-3.48,1.2Z"/><path class="cls-17" d="M82,82.12a2.11,2.11,0,1,0-4.13.84L78.34,85a2.11,2.11,0,0,0,2.06,1.69,2,2,0,0,0,.42,0,2.07,2.07,0,0,0,1.33-.9,2.09,2.09,0,0,0,.31-1.58Z"/><path class="cls-18" d="M84.14,92.43a2.11,2.11,0,1,0-4.13.85l1.69,8.25a2.1,2.1,0,0,0,2.06,1.68,2,2,0,0,0,.42,0,2.1,2.1,0,0,0,1.64-2.48Z"/><path class="cls-19" d="M85.05,118l1.26,6.19a2.11,2.11,0,0,0,2.06,1.68,2,2,0,0,0,.42,0,2.1,2.1,0,0,0,1.64-2.48l-1.26-6.19a2.08,2.08,0,0,0-1.39-1.62A2.1,2.1,0,0,0,85.05,118Z"/><path class="cls-20" d="M87.07,106.88a2.1,2.1,0,1,0-4.12.84l.42,2.07a2.1,2.1,0,0,0,2.06,1.68,2,2,0,0,0,.42,0A2.11,2.11,0,0,0,87.5,109Z"/><path class="cls-21" d="M120,0h-4.21a6.32,6.32,0,0,0-6.24,5.53H74a10.51,10.51,0,0,0-8.34,4.1L51.52,29.48h-1a2.11,2.11,0,0,0-2.11,2.1V42.74A14.78,14.78,0,0,0,37.86,56.85v4.6a6.33,6.33,0,0,0-4.21,5.93v2.1A6.32,6.32,0,0,0,40,75.8h37.9a6.32,6.32,0,0,0,6.32-6.32v-2.1A6.32,6.32,0,0,0,80,61.45v-4.6A14.78,14.78,0,0,0,69.45,42.74V31.58a2.08,2.08,0,0,0-.61-1.47L77.2,18.16h32.4a6.3,6.3,0,0,0,6.17,5H120a2.11,2.11,0,0,0,2.11-2.1V2.11A2.11,2.11,0,0,0,120,0ZM52.6,33.69H65.24v8.42H52.6ZM80,67.38v2.1a2.11,2.11,0,0,1-2.11,2.11H40a2.11,2.11,0,0,1-2.11-2.11v-2.1A2.11,2.11,0,0,1,40,65.27h37.9A2.11,2.11,0,0,1,80,67.38ZM75.76,56.85v4.21H42.08V56.85A10.53,10.53,0,0,1,52.6,46.32H65.24A10.53,10.53,0,0,1,75.76,56.85ZM109.45,14H77.2a4.25,4.25,0,0,0-3.37,1.68L64.14,29.48H56.68L69,12.15a6.26,6.26,0,0,1,5-2.41h35.48Zm8.43,5h-2.11a2.11,2.11,0,0,1-2.11-2.11V6.32a2.11,2.11,0,0,1,2.11-2.11h2.11Z"/><path class="cls-22" d="M96.82,82.12a6.32,6.32,0,0,0,12.63,0c0-.1,0-.19,0-.29a8.41,8.41,0,1,0-9.85-4.91A6.29,6.29,0,0,0,96.82,82.12Zm10.53-12.64a4.22,4.22,0,1,1-4.21,4.21A4.22,4.22,0,0,1,107.35,69.48Zm-5.2,10.79a8.53,8.53,0,0,0,3,1.54,1.55,1.55,0,0,1,0,.31,2.11,2.11,0,0,1-4.21,0A2.13,2.13,0,0,1,102.15,80.27Z"/><path class="cls-23" d="M103.14,111.59a6.32,6.32,0,1,0,6.31-6.31A6.32,6.32,0,0,0,103.14,111.59Zm8.42,0a2.11,2.11,0,1,1-2.11-2.1A2.1,2.1,0,0,1,111.56,111.59Z"/><path class="cls-24" d="M23.13,50.53a6.32,6.32,0,1,0,6.31,6.32A6.32,6.32,0,0,0,23.13,50.53Zm0,8.43a2.11,2.11,0,1,1,2.1-2.11A2.11,2.11,0,0,1,23.13,59Z"/><path class="cls-25" d="M8.39,67.38A8.42,8.42,0,0,0,6.61,84a6.29,6.29,0,1,0,10.05-6.7,8.37,8.37,0,0,0-8.27-9.94ZM6.77,79.69A4.21,4.21,0,1,1,12.6,75.8,6.31,6.31,0,0,0,6.77,79.69Zm5.83,4.53a2.11,2.11,0,1,1,2.1-2.1A2.11,2.11,0,0,1,12.6,84.22Z"/><path class="cls-26" d="M12.6,117.91a8.42,8.42,0,1,0-8.42-8.42A8.42,8.42,0,0,0,12.6,117.91Zm0-12.63a4.21,4.21,0,1,1-4.21,4.21A4.21,4.21,0,0,1,12.6,105.28Z"/></g></g></svg>