<svg xmlns="http://www.w3.org/2000/svg" xmlns:xlink="http://www.w3.org/1999/xlink" viewBox="0 0 125.35 125.35"><defs><style>.cls-1{fill:url(#linear-gradient);}.cls-2{fill:url(#linear-gradient-2);}.cls-3{fill:url(#linear-gradient-3);}.cls-4{fill:url(#linear-gradient-4);}.cls-5{fill:url(#linear-gradient-5);}.cls-6{fill:url(#linear-gradient-6);}.cls-7{fill:url(#linear-gradient-7);}.cls-8{fill:url(#linear-gradient-8);}.cls-9{fill:url(#linear-gradient-9);}</style><linearGradient id="linear-gradient" y1="62.68" x2="125.35" y2="62.68" gradientUnits="userSpaceOnUse"><stop offset="0.01" stop-color="#0a26e8"/><stop offset="1" stop-color="#007aff"/></linearGradient><linearGradient id="linear-gradient-2" x1="39.69" y1="38.65" x2="43.87" y2="38.65" xlink:href="#linear-gradient"/><linearGradient id="linear-gradient-3" x1="39.69" y1="49.1" x2="43.87" y2="49.1" xlink:href="#linear-gradient"/><linearGradient id="linear-gradient-4" x1="32.38" y1="35.96" x2="38.02" y2="35.96" xlink:href="#linear-gradient"/><linearGradient id="linear-gradient-5" x1="25.07" y1="43.42" x2="30.71" y2="43.42" xlink:href="#linear-gradient"/><linearGradient id="linear-gradient-6" x1="45.55" y1="35.96" x2="51.19" y2="35.96" xlink:href="#linear-gradient"/><linearGradient id="linear-gradient-7" x1="52.86" y1="43.42" x2="58.5" y2="43.42" xlink:href="#linear-gradient"/><linearGradient id="linear-gradient-8" x1="12.53" y1="97.15" x2="41.78" y2="97.15" xlink:href="#linear-gradient"/><linearGradient id="linear-gradient-9" x1="12.53" y1="78.35" x2="16.71" y2="78.35" xlink:href="#linear-gradient"/></defs><g id="Layer_2" data-name="Layer 2"><g id="Layer_2-2" data-name="Layer 2"><path class="cls-1" d="M119.08,58.5h-4.17V56.41a6.29,6.29,0,0,0-6.27-6.27H79.39a6.29,6.29,0,0,0-6.27,6.27V58.5H14.62V16.71a12.53,12.53,0,0,1,24.92-1.87A12.55,12.55,0,0,0,29.25,27.16v2.09a2.09,2.09,0,0,0,2.09,2.09H52.23a2.1,2.1,0,0,0,2.09-2.09V27.16A12.54,12.54,0,0,0,43.75,14.8a16.7,16.7,0,0,0-33.3,1.91V58.5H6.27A6.25,6.25,0,0,0,4.18,70.65v17.1a29.26,29.26,0,0,0,27.16,29.14v2.19a6.27,6.27,0,1,0,12.53,0V117H81.48v2.08a6.27,6.27,0,1,0,12.53,0v-2.19a29.26,29.26,0,0,0,27.16-29.14V70.65a6.25,6.25,0,0,0-2.09-12.15ZM50.14,27.16H33.43a8.36,8.36,0,1,1,16.71,0ZM106.55,58.5V56.41a2.09,2.09,0,0,1,4.18,0V58.5ZM77.3,56.41a2.09,2.09,0,0,1,2.09-2.09h23.37a6.19,6.19,0,0,0-.39,2.09v23H83.57a2.09,2.09,0,0,0,0,4.18h18.8v4.18H77.3ZM39.69,119.08a2.09,2.09,0,1,1-4.17,0V117h4.17Zm50.15,0a2.09,2.09,0,0,1-4.18,0V117h4.18Zm2.08-6.26H33.43A25.1,25.1,0,0,1,8.36,87.75V71H62.68a2.09,2.09,0,0,0,0-4.18H6.27a2,2,0,0,1-1.49-.63,2,2,0,0,1-.6-1.46,2.08,2.08,0,0,1,2.09-2.08H73.12V87.75a4.17,4.17,0,0,0,2.09,3.59V96.1a2.09,2.09,0,0,0,4.18,0V91.92h4.18V96.1a2.09,2.09,0,0,0,4.18,0V91.92h4.17V96.1a2.09,2.09,0,1,0,4.18,0V91.92h4.18V96.1a2.09,2.09,0,0,0,4.18,0V91.34a4.17,4.17,0,0,0,2.09-3.59V71H117V87.75A25.11,25.11,0,0,1,91.92,112.82Zm27.16-46H106.55V62.68h12.53a2,2,0,0,1,1.49.64,2,2,0,0,1,.6,1.44A2.08,2.08,0,0,1,119.08,66.85Z"/><path class="cls-2" d="M43.87,37.61a2.09,2.09,0,0,0-4.18,0v2.08a2.09,2.09,0,0,0,4.18,0Z"/><path class="cls-3" d="M41.78,46a2.1,2.1,0,0,0-2.09,2.09v2.09a2.09,2.09,0,1,0,4.18,0V48.05A2.09,2.09,0,0,0,41.78,46Z"/><path class="cls-4" d="M34.44,33.75,33,35.25a2.09,2.09,0,1,0,3,2.92l1.47-1.49a2.09,2.09,0,1,0-3-2.93Z"/><path class="cls-5" d="M27.13,41.21l-1.46,1.5a2.09,2.09,0,1,0,3,2.92l1.46-1.49a2.09,2.09,0,1,0-3-2.93Z"/><path class="cls-6" d="M46.17,33.72a2.11,2.11,0,0,0,0,3l1.46,1.49a2.09,2.09,0,1,0,3-2.92l-1.46-1.5a2.11,2.11,0,0,0-3,0Z"/><path class="cls-7" d="M53.45,44.14l1.47,1.49a2.09,2.09,0,1,0,3-2.92l-1.46-1.5a2.09,2.09,0,1,0-3,2.93Z"/><path class="cls-8" d="M39.69,104.46H33.43A16.74,16.74,0,0,1,16.71,87.75a2.09,2.09,0,0,0-4.18,0,20.92,20.92,0,0,0,20.9,20.89h6.26a2.09,2.09,0,1,0,0-4.18Z"/><path class="cls-9" d="M14.62,81.48a2.09,2.09,0,0,0,2.09-2.09V77.3a2.09,2.09,0,0,0-4.18,0v2.09A2.1,2.1,0,0,0,14.62,81.48Z"/></g></g></svg>