<svg xmlns="http://www.w3.org/2000/svg" width="14.379" height="11.298" viewBox="0 0 14.379 11.298">
  <g id="Icon_ionic-ios-bed" data-name="Icon ionic-ios-bed" transform="translate(-2.25 -5.625)">
    <path id="Path_4" data-name="Path 4" d="M15.929,14.625h-.013a.7.7,0,0,0-.7.7.071.071,0,0,1-.071.071H3.733a.071.071,0,0,1-.071-.071.7.7,0,0,0-.7-.7H2.95a.7.7,0,0,0-.7.7v5.79a.7.7,0,0,0,.7.7h.013a.7.7,0,0,0,.7-.7v-.2a.129.129,0,0,1,.128-.128h11.3a.129.129,0,0,1,.128.128v.2a.7.7,0,0,0,.7.7h.013a.7.7,0,0,0,.7-.7v-5.79A.7.7,0,0,0,15.929,14.625Z" transform="translate(0 -4.892)" fill="#292929"/>
    <path id="Path_5" data-name="Path 5" d="M5.6,9.926h.722A.129.129,0,0,0,6.451,9.8V9.38a.515.515,0,0,1,.514-.514h3.129a.515.515,0,0,1,.514.514V9.8a.129.129,0,0,0,.128.128h.77a.129.129,0,0,0,.128-.128V9.38a.515.515,0,0,1,.514-.514h3.129a.515.515,0,0,1,.514.514V9.8a.129.129,0,0,0,.128.128h.722a.258.258,0,0,0,.257-.257V6.652a1.03,1.03,0,0,0-1.027-1.027h-9.5A1.03,1.03,0,0,0,5.344,6.652V9.669A.258.258,0,0,0,5.6,9.926Z" transform="translate(-1.682)" fill="#292929"/>
  </g>
</svg>
