<svg xmlns="http://www.w3.org/2000/svg" xmlns:xlink="http://www.w3.org/1999/xlink" viewBox="0 0 86.39 123.41"><defs><style>.cls-1{fill:url(#linear-gradient);}.cls-2{fill:url(#linear-gradient-2);}.cls-3{fill:url(#linear-gradient-3);}.cls-4{fill:url(#linear-gradient-4);}</style><linearGradient id="linear-gradient" y1="61.71" x2="86.39" y2="61.71" gradientUnits="userSpaceOnUse"><stop offset="0.01" stop-color="#0a26e8"/><stop offset="1" stop-color="#007aff"/></linearGradient><linearGradient id="linear-gradient-2" x1="20.57" y1="17.49" x2="30.84" y2="17.49" xlink:href="#linear-gradient"/><linearGradient id="linear-gradient-3" x1="38.05" y1="31.89" x2="48.32" y2="31.89" xlink:href="#linear-gradient"/><linearGradient id="linear-gradient-4" x1="55.54" y1="17.49" x2="65.81" y2="17.49" xlink:href="#linear-gradient"/></defs><g id="Layer_2" data-name="Layer 2"><g id="Layer_1-2" data-name="Layer 1"><path class="cls-1" d="M86.39,74.05a6.17,6.17,0,0,0-6.17-6.17V22.63A22.66,22.66,0,0,0,57.59,0H28.8A22.65,22.65,0,0,0,6.17,22.63V67.88A6.17,6.17,0,0,0,0,74.05v8.23a6.12,6.12,0,0,0,1.6,4.11A6.12,6.12,0,0,0,0,90.5V109a4.09,4.09,0,0,0,2.06,3.54v8.8a2,2,0,0,0,2.05,2h8.23a2,2,0,0,0,2.06-2v-8.23H72v8.23a2,2,0,0,0,2.06,2h8.23a2,2,0,0,0,2-2v-8.8A4.11,4.11,0,0,0,86.39,109V90.5a6.13,6.13,0,0,0-1.61-4.11,6.09,6.09,0,0,0,1.61-4.11V74.05ZM10.28,22.63A18.56,18.56,0,0,1,28.8,4.11H57.59A18.56,18.56,0,0,1,76.11,22.63V67.88H72V55.54a10.29,10.29,0,0,0-8.27-10.08,2,2,0,0,0-.56-1.66,2,2,0,0,0-1.45-.61,2.06,2.06,0,0,0-1.46.61L58.8,45.25h-.36L57,43.8a2.05,2.05,0,0,0-3.51,1.45H32.91A2.05,2.05,0,0,0,29.4,43.8L28,45.25h-.36L26.14,43.8a2.06,2.06,0,0,0-1.46-.61,2,2,0,0,0-1.45.61,2,2,0,0,0-.56,1.66A10.29,10.29,0,0,0,14.4,55.54V67.88H10.28V22.63Zm57.6,32.91V67.88H18.51V55.54a6.18,6.18,0,0,1,6.17-6.17h37A6.18,6.18,0,0,1,67.88,55.54ZM4.11,74.05A2.07,2.07,0,0,1,6.17,72H80.22a2.07,2.07,0,0,1,2.06,2.06v8.23a2.07,2.07,0,0,1-2.06,2h-74a2.06,2.06,0,0,1-2.06-2Zm6.17,45.25H6.17v-6.17h4.11Zm69.94,0H76.1v-6.17h4.12ZM4.11,109V90.5a2.07,2.07,0,0,1,2.06-2H80.22a2.07,2.07,0,0,1,2.06,2V109Z"/><path class="cls-2" d="M20.57,20.57A2.05,2.05,0,0,0,24.08,22l1.63-1.63L27.34,22a2.06,2.06,0,0,0,2.91-2.91l-1.63-1.63,1.63-1.63a2.06,2.06,0,0,0-2.91-2.91l-1.63,1.64-1.63-1.64a2.06,2.06,0,0,0-2.91,2.91l1.63,1.63-1.63,1.63A2.09,2.09,0,0,0,20.57,20.57Z"/><path class="cls-3" d="M38.05,35a2,2,0,0,0,.61,1.45,2.05,2.05,0,0,0,2.9,0l1.63-1.63,1.64,1.63a2.05,2.05,0,0,0,2.9-2.91L46.1,31.88l1.63-1.63a2.05,2.05,0,0,0-2.9-2.91L43.19,29l-1.63-1.63a2.05,2.05,0,0,0-2.9,2.91l1.63,1.63-1.63,1.63A2.06,2.06,0,0,0,38.05,35Z"/><path class="cls-4" d="M55.54,20.57a2.07,2.07,0,0,0,2.05,2.06A2.06,2.06,0,0,0,59.05,22l1.63-1.63L62.31,22a2.06,2.06,0,0,0,2.91-2.91l-1.63-1.63,1.63-1.63a2.06,2.06,0,0,0-2.91-2.91l-1.63,1.64-1.63-1.64a2.06,2.06,0,0,0-2.91,2.91l1.63,1.63-1.63,1.63A2,2,0,0,0,55.54,20.57Z"/></g></g></svg>