<svg xmlns="http://www.w3.org/2000/svg" xmlns:xlink="http://www.w3.org/1999/xlink" width="110.33" height="136.106" viewBox="0 0 110.33 136.106"><defs><style>.a{fill:url(#a);}</style><linearGradient id="a" x1="0.5" x2="0.5" y2="1" gradientUnits="objectBoundingBox"><stop offset="0.005" stop-color="#0a26e8"/><stop offset="1" stop-color="#007aff"/></linearGradient></defs><g transform="translate(-31.4)"><g transform="translate(31.4 19.866)"><path class="a" d="M115.132,79.923l-25.776-30.7c-.328-.328-.493-.328-.657-.493a.161.161,0,0,1-.164-.164,2.082,2.082,0,0,0-.985-.164H34.027A2.593,2.593,0,0,0,31.4,51.027V162.013a2.593,2.593,0,0,0,2.627,2.627h79.135a2.593,2.593,0,0,0,2.627-2.627V81.565A2.108,2.108,0,0,0,115.132,79.923Zm-25.284-22,17.075,20.358H89.848V57.923ZM110.7,159.386H36.49V53.49H84.759V80.744a2.593,2.593,0,0,0,2.627,2.627H110.7Z" transform="translate(-31.4 -48.4)"/></g><g transform="translate(48.146 41.209)"><g transform="translate(0)"><path class="a" d="M98.469,100.4H74.827a2.627,2.627,0,1,0,0,5.254H98.469a2.627,2.627,0,0,0,0-5.254Z" transform="translate(-72.2 -100.4)"/></g></g><g transform="translate(48.146 100.643)"><g transform="translate(0)"><path class="a" d="M98.469,245.2H74.827a2.627,2.627,0,1,0,0,5.254H98.469a2.627,2.627,0,1,0,0-5.254Z" transform="translate(-72.2 -245.2)"/></g></g><g transform="translate(48.146 63.702)"><g transform="translate(0)"><path class="a" d="M121.783,155.2H74.827a2.627,2.627,0,1,0,0,5.254h46.956a2.593,2.593,0,0,0,2.627-2.627A2.821,2.821,0,0,0,121.783,155.2Z" transform="translate(-72.2 -155.2)"/></g></g><g transform="translate(47.49 75.195)"><path class="a" d="M120.183,183.2H73.227a2.627,2.627,0,1,0,0,5.254h46.956a2.593,2.593,0,0,0,2.627-2.627A2.7,2.7,0,0,0,120.183,183.2Z" transform="translate(-70.6 -183.2)"/></g><g transform="translate(47.49 87.673)"><path class="a" d="M120.183,213.6H73.227a2.627,2.627,0,1,0,0,5.254h46.956a2.593,2.593,0,0,0,2.627-2.627A2.7,2.7,0,0,0,120.183,213.6Z" transform="translate(-70.6 -213.6)"/></g><g transform="translate(101.998)"><path class="a" d="M223.266,0a19.866,19.866,0,1,0,19.866,19.866A19.83,19.83,0,0,0,223.266,0Zm0,34.642a14.776,14.776,0,1,1,14.776-14.776A14.715,14.715,0,0,1,223.266,34.642Z" transform="translate(-203.4)"/></g><g transform="translate(111.721 13.278)"><path class="a" d="M246.59,33.356a2.378,2.378,0,0,0-3.448-.493L234.6,39.43l-2.791-4.1a2.6,2.6,0,0,0-4.269,2.955l4.433,6.239a2.177,2.177,0,0,0,1.642.985h.328a2.292,2.292,0,0,0,1.478-.493L246.1,36.968A2.593,2.593,0,0,0,246.59,33.356Z" transform="translate(-227.089 -32.35)"/></g></g></svg>