<svg xmlns="http://www.w3.org/2000/svg" xmlns:xlink="http://www.w3.org/1999/xlink" viewBox="0 0 181.75 126.84"><defs><style>.cls-1{fill:url(#linear-gradient);}.cls-2{fill:url(#linear-gradient-2);}.cls-3{fill:url(#linear-gradient-3);}.cls-4{fill:url(#linear-gradient-4);}.cls-5{fill:url(#linear-gradient-5);}.cls-6{fill:url(#linear-gradient-6);}.cls-7{fill:url(#linear-gradient-7);}.cls-8{fill:url(#linear-gradient-8);}.cls-9{fill:url(#linear-gradient-9);}</style><linearGradient id="linear-gradient" y1="63.42" x2="181.75" y2="63.42" gradientUnits="userSpaceOnUse"><stop offset="0.01" stop-color="#0a26e8"/><stop offset="1" stop-color="#007aff"/></linearGradient><linearGradient id="linear-gradient-2" x1="143.89" y1="23.37" x2="167.43" y2="23.37" xlink:href="#linear-gradient"/><linearGradient id="linear-gradient-3" x1="143.78" y1="50.95" x2="167.55" y2="50.95" xlink:href="#linear-gradient"/><linearGradient id="linear-gradient-4" x1="14.2" y1="55.97" x2="134.53" y2="55.97" xlink:href="#linear-gradient"/><linearGradient id="linear-gradient-5" x1="60.79" y1="55.97" x2="87.94" y2="55.97" xlink:href="#linear-gradient"/><linearGradient id="linear-gradient-6" x1="36.94" y1="55.97" x2="54.96" y2="55.97" xlink:href="#linear-gradient"/><linearGradient id="linear-gradient-7" x1="93.77" y1="55.97" x2="111.79" y2="55.97" xlink:href="#linear-gradient"/><linearGradient id="linear-gradient-8" x1="143.78" y1="71.85" x2="167.55" y2="71.85" xlink:href="#linear-gradient"/><linearGradient id="linear-gradient-9" x1="143.78" y1="86.06" x2="167.55" y2="86.06" xlink:href="#linear-gradient"/></defs><g id="Layer_2" data-name="Layer 2"><g id="Layer_2-2" data-name="Layer 2"><path class="cls-1" d="M173.58,0H8.16A8.18,8.18,0,0,0,0,8.16v95.61a8.18,8.18,0,0,0,8.16,8.17h6v6.74a8.16,8.16,0,0,0,8.16,8.16H46.62a8.16,8.16,0,0,0,8.16-8.16v-6.74H127v6.74a8.17,8.17,0,0,0,8.17,8.16h24.25a8.17,8.17,0,0,0,8.17-8.16v-6.74h6a8.19,8.19,0,0,0,8.17-8.17V8.16A8.18,8.18,0,0,0,173.58,0ZM49.81,118.68a3.21,3.21,0,0,1-3.19,3.2H22.36a3.21,3.21,0,0,1-3.19-3.2v-6.74H49.81Zm112.77,0a3.21,3.21,0,0,1-3.2,3.2H135.13a3.21,3.21,0,0,1-3.2-3.2v-6.74h30.65Zm14.2-14.91a3.22,3.22,0,0,1-3.2,3.2H8.16A3.21,3.21,0,0,1,5,103.77V8.16A3.19,3.19,0,0,1,8.16,5H173.58a3.2,3.2,0,0,1,3.2,3.19Z"/><path class="cls-2" d="M158.38,14.2H153a9.17,9.17,0,0,0,0,18.34h5.43a9.17,9.17,0,0,0,0-18.34Zm0,13.37H153a4.2,4.2,0,1,1,0-8.4h5.43a4.2,4.2,0,0,1,0,8.4Z"/><path class="cls-3" d="M158.38,41.78H153a9.17,9.17,0,1,0,0,18.34h5.43a9.17,9.17,0,1,0,0-18.34Zm0,13.37H153a4.2,4.2,0,1,1,0-8.4h5.43a4.2,4.2,0,1,1,0,8.4Z"/><path class="cls-4" d="M132.05,14.2H16.68a2.48,2.48,0,0,0-2.48,2.48V95.25a2.49,2.49,0,0,0,2.48,2.49H132.05a2.49,2.49,0,0,0,2.48-2.49V16.68A2.48,2.48,0,0,0,132.05,14.2Zm-2.48,78.57H19.17V19.17h110.4Z"/><path class="cls-5" d="M63.27,69.55a2.49,2.49,0,0,0,1.78-.75C72.75,61,85.32,48.27,86.86,46.93a2.49,2.49,0,0,0-1.4-4.54c-1.4,0-1.4,0-24,22.93a2.49,2.49,0,0,0,1.77,4.23Z"/><path class="cls-6" d="M39.41,65a2.44,2.44,0,0,0,1.78-.74C45.63,59.73,52.9,52.38,54,51.43A2.47,2.47,0,0,0,54.47,48a2.51,2.51,0,0,0-2-1c-1.25,0-1.25,0-14.85,13.82a2.49,2.49,0,0,0,0,3.51A2.46,2.46,0,0,0,39.41,65Z"/><path class="cls-7" d="M96.24,65A2.44,2.44,0,0,0,98,64.24c4.44-4.51,11.71-11.86,12.77-12.81A2.48,2.48,0,0,0,111.3,48a2.51,2.51,0,0,0-2-1c-1.25,0-1.25,0-14.85,13.82a2.49,2.49,0,0,0,0,3.51,2.46,2.46,0,0,0,1.72.7Z"/><path class="cls-8" d="M165.06,69.36h-18.8a2.49,2.49,0,0,0,0,5h18.8a2.49,2.49,0,1,0,0-5Z"/><path class="cls-9" d="M165.06,83.57h-18.8a2.49,2.49,0,0,0,0,5h18.8a2.49,2.49,0,1,0,0-5Z"/></g></g></svg>