<svg xmlns="http://www.w3.org/2000/svg" xmlns:xlink="http://www.w3.org/1999/xlink" viewBox="0 0 122.33 122.33"><defs><style>.cls-1{fill:url(#linear-gradient);}.cls-2{fill:url(#linear-gradient-2);}.cls-3{fill:url(#linear-gradient-3);}.cls-4{fill:url(#linear-gradient-4);}.cls-5{fill:url(#linear-gradient-5);}</style><linearGradient id="linear-gradient" y1="61.17" x2="122.33" y2="61.17" gradientUnits="userSpaceOnUse"><stop offset="0.01" stop-color="#0a26e8"/><stop offset="1" stop-color="#007aff"/></linearGradient><linearGradient id="linear-gradient-2" x1="62" y1="15.5" x2="110.39" y2="15.5" xlink:href="#linear-gradient"/><linearGradient id="linear-gradient-3" x1="18.02" y1="15.5" x2="32.3" y2="15.5" xlink:href="#linear-gradient"/><linearGradient id="linear-gradient-4" x1="36.39" y1="15.5" x2="50.66" y2="15.5" xlink:href="#linear-gradient"/><linearGradient id="linear-gradient-5" x1="58.9" y1="83.61" x2="95.73" y2="83.61" xlink:href="#linear-gradient"/></defs><g id="Layer_2" data-name="Layer 2"><g id="Layer_2-2" data-name="Layer 2"><path class="cls-1" d="M122.33,109.82V12.51A12.52,12.52,0,0,0,109.82,0H12.51A12.52,12.52,0,0,0,0,12.51v97.31a12.52,12.52,0,0,0,12.51,12.51h97.31A12.52,12.52,0,0,0,122.33,109.82ZM3.58,12.51a9,9,0,0,1,8.93-8.93h97.31a8.94,8.94,0,0,1,8.93,8.93v14.9H3.58ZM106.8,45.93V106.8H90.68A26.77,26.77,0,1,0,60.57,62.71V54.43a5.09,5.09,0,0,0-5.09-5.09h-27a5.09,5.09,0,0,0-5.08,5.09V66.24a18.68,18.68,0,0,0,2.09,8.58,1.79,1.79,0,1,0,3.18-1.66A14.84,14.84,0,0,1,27,66.24V54.43a1.51,1.51,0,0,1,1.5-1.51h27A1.52,1.52,0,0,1,57,54.43V66.24a15.29,15.29,0,0,1-15.81,15h0A15.09,15.09,0,0,1,32.75,78a1.79,1.79,0,1,0-2.21,2.82,18.31,18.31,0,0,0,6,3.16V97.69a12.19,12.19,0,0,0-2.78,1.76A11,11,0,0,0,30,106.8H15.53V45.93l4.94-2.49a11.48,11.48,0,0,1,10.25,0,15.12,15.12,0,0,0,13.47,0,11.46,11.46,0,0,1,10.24,0,15.09,15.09,0,0,0,13.47,0,11.49,11.49,0,0,1,10.24,0,15.14,15.14,0,0,0,13.48,0,11.46,11.46,0,0,1,10.24,0ZM42,84.82c.63,0,1.24,0,1.85-.09v12.4h-3.7V84.73h0C40.43,84.75,41.65,84.82,42,84.82Zm-3.37,15.89h6.74a7.68,7.68,0,0,1,5.06,6.09H33.56A7.7,7.7,0,0,1,38.62,100.71ZM54,106.8a11.24,11.24,0,0,0-6.6-9.13V84a19.07,19.07,0,0,0,3.13-1.29c0,.3,0,.59,0,.88A26.78,26.78,0,0,0,64,106.8ZM57.5,76.47a18.82,18.82,0,0,0,3-8.79.13.13,0,0,1,0-.06,23.17,23.17,0,1,1-6.13,12.46A18.83,18.83,0,0,0,57.5,76.47Zm49.3-34.55-3.33-1.68a15.06,15.06,0,0,0-13.47,0,11.46,11.46,0,0,1-10.24,0,15.06,15.06,0,0,0-13.47,0,11.55,11.55,0,0,1-10.24,0,15.08,15.08,0,0,0-13.48,0,11.46,11.46,0,0,1-10.24,0,15.12,15.12,0,0,0-13.47,0l-3.33,1.68V31H106.8ZM3.58,109.82V31H12v77.6a1.8,1.8,0,0,0,1.79,1.8h94.85a1.81,1.81,0,0,0,1.8-1.8V31h8.36v78.83a8.93,8.93,0,0,1-8.93,8.93H12.51A8.94,8.94,0,0,1,3.58,109.82Z"/><path class="cls-2" d="M66.59,23.11H105.8a4.6,4.6,0,0,0,4.59-4.59v-6a4.6,4.6,0,0,0-4.59-4.59H66.59A4.6,4.6,0,0,0,62,12.47v6A4.6,4.6,0,0,0,66.59,23.11Zm-1-10.64a1,1,0,0,1,1-1H105.8a1,1,0,0,1,1,1v6a1,1,0,0,1-1,1H66.59a1,1,0,0,1-1-1Z"/><path class="cls-3" d="M25.16,22.63A7.14,7.14,0,1,0,18,15.5,7.15,7.15,0,0,0,25.16,22.63Zm0-10.69a3.56,3.56,0,1,1-3.55,3.56A3.56,3.56,0,0,1,25.16,11.94Z"/><path class="cls-4" d="M43.53,22.63a7.14,7.14,0,1,0-7.14-7.13A7.14,7.14,0,0,0,43.53,22.63Zm0-10.69A3.56,3.56,0,1,1,40,15.5,3.57,3.57,0,0,1,43.53,11.94Z"/><path class="cls-5" d="M77.32,102a18.4,18.4,0,0,0,15-29.09A1.79,1.79,0,1,0,89.39,75a14.68,14.68,0,0,1,2.76,8.59,14.86,14.86,0,1,1-7.38-12.81,1.79,1.79,0,0,0,1.81-3.09A18.41,18.41,0,1,0,77.32,102Z"/></g></g></svg>