<svg xmlns="http://www.w3.org/2000/svg" xmlns:xlink="http://www.w3.org/1999/xlink" viewBox="0 0 128.26 128.18"><defs><style>.cls-1{fill:url(#linear-gradient);}.cls-2{fill:url(#linear-gradient-2);}.cls-3{fill:url(#linear-gradient-3);}.cls-4{fill:url(#linear-gradient-4);}.cls-5{fill:url(#linear-gradient-5);}.cls-6{fill:url(#linear-gradient-6);}.cls-7{fill:url(#linear-gradient-7);}.cls-8{fill:url(#linear-gradient-8);}</style><linearGradient id="linear-gradient" y1="64.09" x2="128.26" y2="64.09" gradientUnits="userSpaceOnUse"><stop offset="0.01" stop-color="#0a26e8"/><stop offset="1" stop-color="#007aff"/></linearGradient><linearGradient id="linear-gradient-2" x1="20.12" y1="20.27" x2="33.03" y2="20.27" xlink:href="#linear-gradient"/><linearGradient id="linear-gradient-3" x1="38.43" y1="20.27" x2="51.34" y2="20.27" xlink:href="#linear-gradient"/><linearGradient id="linear-gradient-4" x1="76.92" y1="20.27" x2="89.83" y2="20.27" xlink:href="#linear-gradient"/><linearGradient id="linear-gradient-5" x1="95.23" y1="20.27" x2="108.13" y2="20.27" xlink:href="#linear-gradient"/><linearGradient id="linear-gradient-6" x1="14.94" y1="74.06" x2="113.32" y2="74.06" xlink:href="#linear-gradient"/><linearGradient id="linear-gradient-7" x1="36.33" y1="68.85" x2="45.86" y2="68.85" xlink:href="#linear-gradient"/><linearGradient id="linear-gradient-8" x1="38.02" y1="73.37" x2="53.63" y2="73.37" xlink:href="#linear-gradient"/></defs><g id="Layer_2" data-name="Layer 2"><g id="Layer_2-2" data-name="Layer 2"><path class="cls-1" d="M128.26,14.07a5.81,5.81,0,0,0-5.81-5.81H109.93V4.49A4.49,4.49,0,0,0,105.44,0H79.62a4.49,4.49,0,0,0-4.49,4.49V8.26h-22V4.49A4.49,4.49,0,0,0,48.64,0H22.82a4.49,4.49,0,0,0-4.49,4.49V8.26H5.81A5.81,5.81,0,0,0,0,14.07v12.4A5.74,5.74,0,0,0,1.54,30.4,5.78,5.78,0,0,0,0,34.34v76.6a5.81,5.81,0,0,0,5.81,5.81h.6v5.63a5.81,5.81,0,0,0,5.81,5.8H70.49a1.88,1.88,0,1,0,0-3.75H12.22a2.05,2.05,0,0,1-2.05-2.05v-5.63H118.09v5.63a2.05,2.05,0,0,1-2,2.05H79.19a1.88,1.88,0,1,0,0,3.75H116a5.81,5.81,0,0,0,5.81-5.8v-5.63h.6a5.81,5.81,0,0,0,5.81-5.81V34.34a5.78,5.78,0,0,0-1.54-3.94,5.74,5.74,0,0,0,1.54-3.93ZM78.89,4.49a.73.73,0,0,1,.73-.73h25.82a.73.73,0,0,1,.73.73V8.26H78.89Zm-56.8,0a.73.73,0,0,1,.73-.73H48.64a.73.73,0,0,1,.73.73V8.26H22.09ZM124.5,110.94a2.06,2.06,0,0,1-2,2.06H5.81a2.06,2.06,0,0,1-2-2.06V34.34a2.05,2.05,0,0,1,2.05-2.06H122.45a2.05,2.05,0,0,1,2,2.06Zm0-84.47a2.05,2.05,0,0,1-2,2.05H5.81a2.05,2.05,0,0,1-2-2.05V14.07A2.05,2.05,0,0,1,5.81,12H122.45a2.05,2.05,0,0,1,2,2.05Z"/><path class="cls-2" d="M26.58,13.82A6.45,6.45,0,1,0,33,20.27,6.46,6.46,0,0,0,26.58,13.82Zm0,9.14a2.7,2.7,0,1,1,2.69-2.69A2.7,2.7,0,0,1,26.58,23Z"/><path class="cls-3" d="M44.88,13.82a6.45,6.45,0,1,0,6.46,6.45A6.45,6.45,0,0,0,44.88,13.82Zm0,9.14a2.7,2.7,0,1,1,2.7-2.69A2.7,2.7,0,0,1,44.88,23Z"/><path class="cls-4" d="M83.38,13.82a6.45,6.45,0,1,0,6.45,6.45A6.46,6.46,0,0,0,83.38,13.82Zm0,9.14a2.7,2.7,0,1,1,2.69-2.69A2.7,2.7,0,0,1,83.38,23Z"/><path class="cls-5" d="M101.68,13.82a6.45,6.45,0,1,0,6.45,6.45A6.45,6.45,0,0,0,101.68,13.82Zm0,9.14a2.7,2.7,0,1,1,2.7-2.69A2.7,2.7,0,0,1,101.68,23Z"/><path class="cls-6" d="M108.91,43.07H54.26a1.88,1.88,0,0,0,0,3.76h54.65a.65.65,0,0,1,.65.65v5a.65.65,0,0,1-.65.65H19.35a.65.65,0,0,1-.65-.65v-5a.65.65,0,0,1,.65-.65H45.47a1.88,1.88,0,1,0,0-3.76H19.35a4.42,4.42,0,0,0-4.41,4.41v5a4.42,4.42,0,0,0,4.41,4.41h2.52v41.7a6.49,6.49,0,0,0,6.48,6.49H99.91a6.49,6.49,0,0,0,6.48-6.49V56.87h2.52a4.42,4.42,0,0,0,4.41-4.41v-5A4.42,4.42,0,0,0,108.91,43.07Zm-6.28,55.5a2.73,2.73,0,0,1-2.72,2.73H28.35a2.73,2.73,0,0,1-2.72-2.73V56.87h77Z"/><path class="cls-7" d="M38.21,73.86a1.89,1.89,0,0,0,1.39-.6L45.36,67a1.88,1.88,0,0,0-2.77-2.54l-5.76,6.26a1.87,1.87,0,0,0,1.38,3.15Z"/><path class="cls-8" d="M38.62,81.2a1.9,1.9,0,0,0,1.28.49,1.88,1.88,0,0,0,1.38-.6L53.13,68.2a1.88,1.88,0,0,0-2.76-2.54L38.51,78.54A1.89,1.89,0,0,0,38.62,81.2Z"/></g></g></svg>