<svg xmlns="http://www.w3.org/2000/svg" xmlns:xlink="http://www.w3.org/1999/xlink" viewBox="0 0 72.96 128.1"><defs><style>.cls-1{fill:url(#linear-gradient);}.cls-2{fill:url(#linear-gradient-2);}.cls-3{fill:url(#linear-gradient-3);}</style><linearGradient id="linear-gradient" y1="64.05" x2="72.96" y2="64.05" gradientUnits="userSpaceOnUse"><stop offset="0.01" stop-color="#0a26e8"/><stop offset="1" stop-color="#007aff"/></linearGradient><linearGradient id="linear-gradient-2" x1="52.92" y1="24.86" x2="62.93" y2="24.86" xlink:href="#linear-gradient"/><linearGradient id="linear-gradient-3" x1="52.92" y1="68.51" x2="62.93" y2="68.51" xlink:href="#linear-gradient"/></defs><g id="Layer_2" data-name="Layer 2"><g id="Layer_2-2" data-name="Layer 2"><path class="cls-1" d="M73,43V6.76A6.77,6.77,0,0,0,66.2,0H6.76A6.76,6.76,0,0,0,0,6.76V43a6.72,6.72,0,0,0,2.24,5A6.69,6.69,0,0,0,0,53v61.23A6.76,6.76,0,0,0,6.76,121h.92v5.38a1.75,1.75,0,0,0,1.75,1.75H22a1.75,1.75,0,0,0,1.76-1.75V121H49.25v5.38A1.75,1.75,0,0,0,51,128.1H63.53a1.75,1.75,0,0,0,1.75-1.75V121h.92A6.77,6.77,0,0,0,73,114.21V53a6.72,6.72,0,0,0-2.24-5A6.75,6.75,0,0,0,73,43ZM20.2,124.6h-9V121h9Zm41.57,0h-9V121h9ZM69.45,53v61.23a3.26,3.26,0,0,1-3.25,3.26H6.76a3.26,3.26,0,0,1-3.25-3.26V53a3.25,3.25,0,0,1,3.25-3.26H66.2A3.26,3.26,0,0,1,69.45,53ZM6.76,46.21A3.24,3.24,0,0,1,3.51,43V6.76A3.24,3.24,0,0,1,6.76,3.51H66.2a3.25,3.25,0,0,1,3.25,3.25V43a3.25,3.25,0,0,1-3.25,3.25Z"/><path class="cls-2" d="M61.18,12.59H54.67a1.75,1.75,0,0,0-1.75,1.75v21a1.75,1.75,0,0,0,1.75,1.75h6.51a1.75,1.75,0,0,0,1.75-1.75v-21a1.75,1.75,0,0,0-1.75-1.75Zm-1.75,21h-3V16.09h3Z"/><path class="cls-3" d="M54.67,80.78h6.51A1.75,1.75,0,0,0,62.93,79V58a1.75,1.75,0,0,0-1.75-1.75H54.67A1.75,1.75,0,0,0,52.92,58h0V79A1.75,1.75,0,0,0,54.67,80.78Zm1.75-21h3V77.27h-3Z"/></g></g></svg>