<svg xmlns="http://www.w3.org/2000/svg" xmlns:xlink="http://www.w3.org/1999/xlink" viewBox="0 0 152.1 128.33"><defs><style>.cls-1{fill:url(#linear-gradient);}.cls-2{fill:url(#linear-gradient-2);}.cls-3{fill:url(#linear-gradient-3);}.cls-4{fill:url(#linear-gradient-4);}.cls-5{fill:url(#linear-gradient-5);}.cls-6{fill:url(#linear-gradient-6);}.cls-7{fill:url(#linear-gradient-7);}.cls-8{fill:url(#linear-gradient-8);}.cls-9{fill:url(#linear-gradient-9);}.cls-10{fill:url(#linear-gradient-10);}.cls-11{fill:url(#linear-gradient-11);}.cls-12{fill:url(#linear-gradient-12);}.cls-13{fill:url(#linear-gradient-13);}</style><linearGradient id="linear-gradient" y1="64.17" x2="152.1" y2="64.17" gradientUnits="userSpaceOnUse"><stop offset="0.01" stop-color="#0a26e8"/><stop offset="1" stop-color="#007aff"/></linearGradient><linearGradient id="linear-gradient-2" x1="9.51" y1="35.65" x2="61.79" y2="35.65" xlink:href="#linear-gradient"/><linearGradient id="linear-gradient-3" x1="21.39" y1="35.65" x2="49.91" y2="35.65" xlink:href="#linear-gradient"/><linearGradient id="linear-gradient-4" x1="78.43" y1="35.65" x2="106.94" y2="35.65" xlink:href="#linear-gradient"/><linearGradient id="linear-gradient-5" x1="21.39" y1="92.69" x2="49.91" y2="92.69" xlink:href="#linear-gradient"/><linearGradient id="linear-gradient-6" x1="78.43" y1="92.69" x2="106.94" y2="92.69" xlink:href="#linear-gradient"/><linearGradient id="linear-gradient-7" x1="66.54" y1="35.65" x2="118.83" y2="35.65" xlink:href="#linear-gradient"/><linearGradient id="linear-gradient-8" x1="9.51" y1="92.69" x2="61.79" y2="92.69" xlink:href="#linear-gradient"/><linearGradient id="linear-gradient-9" x1="66.54" y1="92.69" x2="118.83" y2="92.69" xlink:href="#linear-gradient"/><linearGradient id="linear-gradient-10" x1="125.94" y1="99.81" x2="140.24" y2="99.81" xlink:href="#linear-gradient"/><linearGradient id="linear-gradient-11" x1="125.94" y1="76.05" x2="140.24" y2="76.05" xlink:href="#linear-gradient"/><linearGradient id="linear-gradient-12" x1="125.94" y1="52.28" x2="140.24" y2="52.28" xlink:href="#linear-gradient"/><linearGradient id="linear-gradient-13" x1="125.94" y1="28.52" x2="140.24" y2="28.52" xlink:href="#linear-gradient"/></defs><g id="Layer_2" data-name="Layer 2"><g id="Layer_2-2" data-name="Layer 2"><path class="cls-1" d="M149.72,0H2.38A2.37,2.37,0,0,0,0,2.38V126a2.37,2.37,0,0,0,2.38,2.37H149.72A2.37,2.37,0,0,0,152.1,126V2.38A2.37,2.37,0,0,0,149.72,0Zm-2.37,123.58H4.75V4.75h142.6Z"/><path class="cls-2" d="M35.65,61.79A26.14,26.14,0,1,0,9.51,35.65,26.17,26.17,0,0,0,35.65,61.79Zm0-47.53A21.39,21.39,0,1,1,14.26,35.65,21.41,21.41,0,0,1,35.65,14.26Z"/><path class="cls-3" d="M35.65,49.91A14.26,14.26,0,1,0,21.39,35.65,14.28,14.28,0,0,0,35.65,49.91Zm0-23.77a9.51,9.51,0,1,1-9.51,9.51A9.52,9.52,0,0,1,35.65,26.14Z"/><path class="cls-4" d="M92.69,49.91A14.26,14.26,0,1,0,78.43,35.65,14.27,14.27,0,0,0,92.69,49.91Zm0-23.77a9.51,9.51,0,1,1-9.51,9.51A9.52,9.52,0,0,1,92.69,26.14Z"/><path class="cls-5" d="M35.65,107A14.26,14.26,0,1,0,21.39,92.69,14.28,14.28,0,0,0,35.65,107Zm0-23.77a9.51,9.51,0,1,1-9.51,9.51A9.51,9.51,0,0,1,35.65,83.18Z"/><path class="cls-6" d="M92.69,107A14.26,14.26,0,1,0,78.43,92.69,14.27,14.27,0,0,0,92.69,107Zm0-23.77a9.51,9.51,0,1,1-9.51,9.51A9.51,9.51,0,0,1,92.69,83.18Z"/><path class="cls-7" d="M92.69,61.79A26.14,26.14,0,1,0,66.54,35.65,26.17,26.17,0,0,0,92.69,61.79Zm0-47.53A21.39,21.39,0,1,1,71.3,35.65,21.41,21.41,0,0,1,92.69,14.26Z"/><path class="cls-8" d="M35.65,118.83A26.14,26.14,0,1,0,9.51,92.69,26.17,26.17,0,0,0,35.65,118.83Zm0-47.53A21.39,21.39,0,1,1,14.26,92.69,21.41,21.41,0,0,1,35.65,71.3Z"/><path class="cls-9" d="M92.69,118.83A26.14,26.14,0,1,0,66.54,92.69,26.17,26.17,0,0,0,92.69,118.83Zm0-47.53A21.39,21.39,0,1,1,71.3,92.69,21.41,21.41,0,0,1,92.69,71.3Z"/><path class="cls-10" d="M133.09,110.52a7.16,7.16,0,0,0,7.15-7.15.42.42,0,0,0,0-.12V96.36s0-.07,0-.11a7.14,7.14,0,1,0-14.28,0s0,.08,0,.11v6.89s0,.07,0,.12A7.15,7.15,0,0,0,133.09,110.52Zm0-4.76a2.39,2.39,0,0,1-2.39-2.34.43.43,0,0,1,0,0V103a6.77,6.77,0,0,0,4.75,0v.41s0,0,0,0A2.38,2.38,0,0,1,133.09,105.76Zm0-11.9a2.39,2.39,0,0,1,2.38,2.35,0,0,0,0,1,0,0v.08a2.38,2.38,0,0,1-4.75,0v-.1A2.38,2.38,0,0,1,133.09,93.86Z"/><path class="cls-11" d="M133.09,86.75a7.16,7.16,0,0,0,7.15-7.15.7.7,0,0,0,0-.12V72.6s0-.08,0-.12a7.14,7.14,0,0,0-14.28,0s0,.08,0,.12v6.88s0,.08,0,.12A7.15,7.15,0,0,0,133.09,86.75Zm0-4.75a2.39,2.39,0,0,1-2.39-2.34s0,0,0-.06v-.41a7.23,7.23,0,0,0,2.38.44,7,7,0,0,0,2.37-.44v.41s0,0,0,.06A2.39,2.39,0,0,1,133.09,82Zm0-11.9a2.39,2.39,0,0,1,2.38,2.35,0,0,0,0,0,0,0v.07a2.38,2.38,0,0,1-4.75,0v-.09A2.38,2.38,0,0,1,133.09,70.1Z"/><path class="cls-12" d="M133.09,63a7.16,7.16,0,0,0,7.15-7.16.45.45,0,0,0,0-.11V48.83s0-.07,0-.11a7.14,7.14,0,1,0-14.28,0s0,.08,0,.11v6.89s0,.07,0,.11A7.16,7.16,0,0,0,133.09,63Zm0-4.76a2.39,2.39,0,0,1-2.39-2.34s0,0,0-.06v-.4a6.77,6.77,0,0,0,4.75,0v.4s0,0,0,.06A2.38,2.38,0,0,1,133.09,58.23Zm0-11.9a2.39,2.39,0,0,1,2.38,2.35v.1a2.38,2.38,0,0,1-4.75,0v-.1A2.38,2.38,0,0,1,133.09,46.33Z"/><path class="cls-13" d="M125.94,32.07a7.15,7.15,0,0,0,14.3,0,.7.7,0,0,0,0-.12V25.07s0-.08,0-.12A7.14,7.14,0,1,0,126,25s0,.08,0,.12V32C126,32,125.94,32,125.94,32.07Zm7.15,2.4a2.39,2.39,0,0,1-2.39-2.34s0,0,0-.06v-.41a7.23,7.23,0,0,0,2.38.44,7,7,0,0,0,2.37-.44v.41s0,0,0,.06A2.39,2.39,0,0,1,133.09,34.47Zm0-11.9a2.39,2.39,0,0,1,2.38,2.35,0,0,0,0,0,0,0V25a2.38,2.38,0,0,1-4.75,0v-.09A2.38,2.38,0,0,1,133.09,22.57Z"/></g></g></svg>