<svg xmlns="http://www.w3.org/2000/svg" xmlns:xlink="http://www.w3.org/1999/xlink" viewBox="0 0 145.12 133"><defs><style>.cls-1{fill:url(#linear-gradient);}.cls-2{fill:url(#linear-gradient-2);}.cls-3{fill:url(#linear-gradient-3);}.cls-4{fill:url(#linear-gradient-4);}.cls-5{fill:url(#linear-gradient-5);}.cls-6{fill:url(#linear-gradient-6);}.cls-7{fill:url(#linear-gradient-7);}</style><linearGradient id="linear-gradient" x1="81.06" y1="76.53" x2="86.73" y2="76.53" gradientUnits="userSpaceOnUse"><stop offset="0.01" stop-color="#0a26e8"/><stop offset="1" stop-color="#007aff"/></linearGradient><linearGradient id="linear-gradient-2" x1="26.92" y1="92.76" x2="118.44" y2="92.76" xlink:href="#linear-gradient"/><linearGradient id="linear-gradient-3" x1="86.41" y1="92.83" x2="102.16" y2="92.83" xlink:href="#linear-gradient"/><linearGradient id="linear-gradient-4" x1="33.29" y1="23.32" x2="66.71" y2="23.32" xlink:href="#linear-gradient"/><linearGradient id="linear-gradient-5" x1="0" y1="61.29" x2="36.5" y2="61.29" xlink:href="#linear-gradient"/><linearGradient id="linear-gradient-6" x1="78.47" y1="23.37" x2="111.89" y2="23.37" xlink:href="#linear-gradient"/><linearGradient id="linear-gradient-7" x1="108.62" y1="61.3" x2="145.12" y2="61.3" xlink:href="#linear-gradient"/></defs><g id="Layer_2" data-name="Layer 2"><g id="Layer_2-2" data-name="Layer 2"><path class="cls-1" d="M83.9,73.69a2.84,2.84,0,1,0,2.83,2.84A2.84,2.84,0,0,0,83.9,73.69Z"/><path class="cls-2" d="M109.19,89A71,71,0,0,1,95,67.45a24.26,24.26,0,0,0-44.79,0C43.83,82.08,35.12,89.83,35,89.9l0,0a24.36,24.36,0,0,0,2.89,38.47,26.88,26.88,0,0,0,22,3.56,48.8,48.8,0,0,1,12.63-1.58A48.18,48.18,0,0,1,85.37,132a26.69,26.69,0,0,0,21.95-3.45A24.41,24.41,0,0,0,109.19,89Zm-5,34.88a21,21,0,0,1-17.29,2.72,56.85,56.85,0,0,0-28.46-.06A21.22,21.22,0,0,1,41,123.68,18.42,18.42,0,0,1,32.59,108a18.61,18.61,0,0,1,6.18-13.85c.61-.53,9.81-8.77,16.64-24.46l0,0a18.6,18.6,0,0,1,34.35,0l0,0a76.74,76.74,0,0,0,15.51,23.39l.26.23a18.74,18.74,0,0,1-1.38,30.51Z"/><path class="cls-3" d="M91.62,85a2.83,2.83,0,1,0-4.75,3.09,80.55,80.55,0,0,0,10.46,13.07,2.83,2.83,0,0,0,4-4A75.64,75.64,0,0,1,91.62,85Z"/><path class="cls-4" d="M63.37,38.71a28.8,28.8,0,0,0,3.12-17.35C65.05,9.17,56.64-1,47.25.09c-4.24.5-8,3.28-10.62,7.84a28.82,28.82,0,0,0-3.12,17.34C35.86,45.18,54.4,54.39,63.37,38.71Zm-21.82-28c1.55-2.71,4-5.07,7.09-5.07,5.58,0,11.17,7.49,12.22,16.36a23.09,23.09,0,0,1-2.4,13.86C51.92,47.3,40.69,37.68,39.14,24.61A23.11,23.11,0,0,1,41.55,10.74Z"/><path class="cls-5" d="M36.22,69.19a25.65,25.65,0,0,0-2.8-15.73A25.78,25.78,0,0,0,22.21,42.07c-4.88-2.4-9.88-2.52-14.07-.35S1.15,48,.28,53.4A25.73,25.73,0,0,0,3.09,69.13,25.68,25.68,0,0,0,14.3,80.52c4.56,2.24,9.61,2.66,14.07.35C32.56,78.71,35.35,74.56,36.22,69.19ZM25.77,75.84c-2.56,1.32-5.75,1.18-9-.41a20,20,0,0,1-8.67-8.9A20,20,0,0,1,5.88,54.31c.57-3.55,2.3-6.23,4.86-7.56h0c2.83-1.46,6.11-1,9,.41a20,20,0,0,1,8.67,8.9,20,20,0,0,1,2.25,12.22C30.05,71.83,28.33,74.51,25.77,75.84Z"/><path class="cls-6" d="M93.82,46.68c8.59,0,16.43-9.38,17.85-21.35C113.18,12.57,106.76.06,96.54.06,88,.06,80.11,9.44,78.69,21.42,77.18,34.2,83.63,46.68,93.82,46.68Zm-9.5-24.6C85.37,13.22,91,5.73,96.55,5.73a4.84,4.84,0,0,1,.69,0c3,.33,5.36,3,6.74,5.67a23.72,23.72,0,0,1,2.07,13.22C105,33.84,98.87,41.72,93.13,41h0c-2.58-.3-5-2.37-6.71-5.67A23.69,23.69,0,0,1,84.32,22.08Z"/><path class="cls-7" d="M144.84,53.41c-1.79-11-11.77-16.32-21.93-11.33-9.5,4.66-15.71,16.67-14,27.12,1.81,11.17,11.89,16.26,21.93,11.33C140.33,75.87,146.54,63.86,144.84,53.41Zm-16.51,22c-3.23,1.59-6.41,1.73-9,.41h0c-2.56-1.32-4.29-4-4.87-7.55-1.29-8,3.64-17.56,10.92-21.13,6.67-3.28,12.64-.2,13.84,7.15C140.54,62.28,135.62,71.87,128.33,75.44Z"/></g></g></svg>