<svg xmlns="http://www.w3.org/2000/svg" xmlns:xlink="http://www.w3.org/1999/xlink" viewBox="0 0 151.16 61.37"><defs><style>.cls-1{fill:url(#linear-gradient);}.cls-2{fill:url(#linear-gradient-2);}.cls-3{fill:url(#linear-gradient-3);}</style><linearGradient id="linear-gradient" x1="116.77" y1="16.02" x2="145.24" y2="16.02" gradientUnits="userSpaceOnUse"><stop offset="0.01" stop-color="#0a26e8"/><stop offset="1" stop-color="#007aff"/></linearGradient><linearGradient id="linear-gradient-2" x1="99.14" y1="16.02" x2="127.61" y2="16.02" xlink:href="#linear-gradient"/><linearGradient id="linear-gradient-3" x1="0" y1="48.77" x2="151.16" y2="48.77" xlink:href="#linear-gradient"/></defs><g id="Layer_2" data-name="Layer 2"><g id="Layer_2-2" data-name="Layer 2"><path class="cls-1" d="M134.31,21.11a10.55,10.55,0,0,1,2.76,4.25,15.44,15.44,0,0,0,3.86,5.92,2.52,2.52,0,1,0,3.59-3.54l0,0a10.63,10.63,0,0,1-2.75-4.25A17.13,17.13,0,0,0,132,13.68a10.63,10.63,0,0,1-4.25-2.75A10.66,10.66,0,0,1,125,6.68,15.54,15.54,0,0,0,121.08.75a2.52,2.52,0,1,0-3.58,3.54l0,0a10.59,10.59,0,0,1,2.75,4.25,15.54,15.54,0,0,0,3.87,5.93,15.44,15.44,0,0,0,5.92,3.86A10.55,10.55,0,0,1,134.31,21.11Z"/><path class="cls-2" d="M120.24,17.54a15.67,15.67,0,0,0-5.92-3.86,10.73,10.73,0,0,1-4.26-2.75,10.77,10.77,0,0,1-2.75-4.25A15.4,15.4,0,0,0,103.45.75a2.52,2.52,0,0,0-3.59,3.54l0,0a10.7,10.7,0,0,1,2.75,4.25,15.4,15.4,0,0,0,3.86,5.93,15.4,15.4,0,0,0,5.93,3.86,12.12,12.12,0,0,1,7,7,15.61,15.61,0,0,0,3.87,5.93,2.52,2.52,0,1,0,3.58-3.55l0,0a10.65,10.65,0,0,1-2.76-4.25,15.47,15.47,0,0,0-3.86-5.93Z"/><path class="cls-3" d="M148.64,36.17H2.52A2.52,2.52,0,0,0,0,38.69V58.85a2.52,2.52,0,0,0,2.52,2.52H148.64a2.52,2.52,0,0,0,2.52-2.52V38.69A2.52,2.52,0,0,0,148.64,36.17ZM40.31,56.33H5V41.21H40.31Zm85.66,0H45.35V41.21H126Zm10.08,0h-5V41.21h5Zm10.07,0h-5V41.21h5Z"/></g></g></svg>