<svg xmlns="http://www.w3.org/2000/svg" xmlns:xlink="http://www.w3.org/1999/xlink" viewBox="0 0 102.04 128.33"><defs><style>.cls-1{fill:url(#linear-gradient);}</style><linearGradient id="linear-gradient" y1="64.17" x2="102.04" y2="64.17" gradientUnits="userSpaceOnUse"><stop offset="0.01" stop-color="#0a26e8"/><stop offset="1" stop-color="#007aff"/></linearGradient></defs><g id="Layer_2" data-name="Layer 2"><g id="Layer_2-2" data-name="Layer 2"><path class="cls-1" d="M99,63.24a79.69,79.69,0,0,0,2.76-27.66h0a.76.76,0,0,0,0-.21h0l-.06-.18a.14.14,0,0,0,0-.06s0-.09-.05-.13a.21.21,0,0,0,0-.06.54.54,0,0,0-.07-.13l0,0-.11-.15h0a1.07,1.07,0,0,0-.14-.16l0,0-.14-.11,0,0-.12-.08,0,0,0,0,0,0-.07,0-.07,0-.14,0-.06,0a1.85,1.85,0,0,0-.41-.07h-.26l-.14,0h-.07l-.14,0-.06,0-.19.07h0c-.18.09-2.81,1.27-8.64,4.61,3.56-14.4-.06-25.08-.53-26.36l0,0a.36.36,0,0,0,0-.09l0-.08a.59.59,0,0,0,0-.08l0-.08,0-.07-.06-.08-.06-.06-.06-.07-.06-.06-.07-.07-.07,0-.08-.06-.07-.05-.09,0,0,0h0l-.1,0-.07,0-.09,0-.09,0-.08,0-.09,0-.1,0H88l-.1,0h-.08l-.09,0-.09,0h0c-1.18.4-11,3.91-19.83,14.56C62.05,10.37,53.67,1.83,52.33.53l0,0A.27.27,0,0,0,52.2.42l-.07,0L52.05.31,52,.26l-.08,0-.08,0-.09,0-.08,0-.09,0-.08,0-.1,0-.09,0h-.54l-.09,0-.1,0-.08,0-.09,0-.08,0-.09,0-.08,0-.08,0L50,.31l-.08.06a.18.18,0,0,0-.07,0l-.08.07,0,0c-1.34,1.3-9.72,9.84-15.47,25.2C25.43,15.08,15.58,11.57,14.41,11.18h0l-.09,0-.09,0h-.07l-.11,0H13.6l-.11,0-.08,0-.09,0-.09,0-.09,0-.08,0-.09,0h0l0,0-.09,0-.07.05-.08.06-.07,0-.07.06-.06.07-.06.07-.06.07a.18.18,0,0,0-.05.07l0,.07-.05.08a.56.56,0,0,1,0,.08.2.2,0,0,1,0,.08l0,.09s0,0,0,0c-.47,1.28-4.09,12-.53,26.36-5.83-3.34-8.46-4.52-8.64-4.61h0L2.68,34l-.06,0-.14,0H2.41l-.14,0H2a1.87,1.87,0,0,0-.4.07l-.07,0L1.4,34l-.08,0-.06,0-.05,0,0,0,0,0L1,34.25l-.06,0a.69.69,0,0,0-.13.11l0,0a1.07,1.07,0,0,0-.14.16l0,0a.71.71,0,0,0-.1.14.1.1,0,0,1,0,0l-.06.12,0,.07,0,.12a.25.25,0,0,0,0,.07,1.09,1.09,0,0,0-.05.17v0a1.18,1.18,0,0,0,0,.2h0A79.54,79.54,0,0,0,3,63.24,30.94,30.94,0,0,0,15.71,80.49,6.84,6.84,0,0,0,18.09,93.4l4,21.71A16.17,16.17,0,0,0,38,128.33H64a16.17,16.17,0,0,0,15.9-13.22l4-21.68h2.33a6.83,6.83,0,0,0,1-13.59A30.86,30.86,0,0,0,99,63.24ZM85.82,41.41c-3.08,1.84-6.75,4.1-11.07,6.85l-.12.07-1.55,1-.08.05c0-.15,0-.29,0-.43,0-.39-.07-.77-.1-1.15,4.36-9.18,9.32-19.13,14.77-29.63A47.32,47.32,0,0,1,85.82,41.41ZM84,16.93C79.67,25.35,75.62,33.42,71.94,41A85.74,85.74,0,0,0,69.26,30,47,47,0,0,1,84,16.93ZM65.34,30a1.16,1.16,0,0,0,0,.18,83.94,83.94,0,0,1,3.88,19.62V50c0,.39.06.78.08,1.17,0,.11,0,.22,0,.34s0,.2,0,.3A49.83,49.83,0,0,0,54.49,69.7l0,0-.43.87-.07.14c-.14.28-.27.56-.4.84a1,1,0,0,0-.07.15c-.2.43-.4.85-.59,1.29V6.8a68.78,68.78,0,0,1,6.72,10.1A78.93,78.93,0,0,1,65.34,30Zm-28.68.18a1.16,1.16,0,0,0,0-.18A78.93,78.93,0,0,1,42.42,16.9,68.78,68.78,0,0,1,49.14,6.8V73c-.19-.44-.39-.87-.59-1.29a1,1,0,0,0-.07-.15c-.13-.28-.26-.56-.4-.84L48,70.62c-.14-.29-.29-.58-.44-.87l0,0a49.83,49.83,0,0,0-14.9-17.91c0-.1,0-.2,0-.3s0-.23,0-.34c0-.39.05-.78.08-1.17v-.16A84,84,0,0,1,36.66,30.21ZM32.78,30A85.74,85.74,0,0,0,30.1,41c-3.68-7.6-7.73-15.67-12.1-24.09A47,47,0,0,1,32.78,30ZM14.41,18.17C19.86,28.68,24.82,38.62,29.18,47.8c0,.38-.07.76-.1,1.15,0,.14,0,.28,0,.43L29,49.33c-.53-.35-1.06-.68-1.58-1l-.08,0c-4.32-2.76-8-5-11.08-6.86A47.32,47.32,0,0,1,14.41,18.17Zm5.12,29.65.54.34,1.23.77.94.58L23,50l1.34.85.48.31,1.62,1,.39.24,1.77,1.15.64.42.43.29h0C37.2,59.51,43,67.35,47,77.64a1.46,1.46,0,0,0,.07.19l.33.89.15.42.23.63H45.48C32.85,74,22.25,62.25,15.57,53.36a145.48,145.48,0,0,1-8.73-13C9.77,42,13.94,44.38,19.53,47.82ZM6.6,62.19a75.94,75.94,0,0,1-2.81-19.6,152.54,152.54,0,0,0,8.73,13c8.1,10.77,16.5,18.88,25.05,24.2H22.31A27.28,27.28,0,0,1,6.6,62.19ZM89.34,86.6a3.07,3.07,0,0,1-3.07,3.07H42a1.88,1.88,0,1,0,0,3.76H80.12l-3.9,21A12.42,12.42,0,0,1,64,124.57H38a12.42,12.42,0,0,1-12.21-10.15l-3.9-21h6.62a1.88,1.88,0,0,0,0-3.76H18.77a3.07,3.07,0,1,1,0-6.14h67.5A3.07,3.07,0,0,1,89.34,86.6Zm-9.61-6.83H64.46c8-5,15.89-12.42,23.53-22.2a1.88,1.88,0,0,0-3-2.32C75.78,67.1,66.22,75.34,56.63,79.74l-.05,0h-2.3l.23-.63c.05-.14.09-.28.14-.42.11-.3.23-.59.34-.89a1.46,1.46,0,0,0,.07-.19c4-10.29,9.78-18.13,17.33-23.37h0l.43-.3.64-.42,1.77-1.14.39-.26,1.61-1,.5-.32L79,50l.78-.49.9-.56,1.33-.83.44-.27c5.6-3.46,9.78-5.87,12.71-7.49-.72,1.22-1.56,2.59-2.52,4.09A1.87,1.87,0,0,0,93.24,47a1.83,1.83,0,0,0,1,.3,1.87,1.87,0,0,0,1.58-.86q1.36-2.13,2.42-3.89a75.89,75.89,0,0,1-2.83,19.61A27.24,27.24,0,0,1,79.73,79.77Z"/></g></g></svg>