<svg xmlns="http://www.w3.org/2000/svg" width="13.018" height="12.476" viewBox="0 0 13.018 12.476">
  <path id="Icon_map-plumber" data-name="Icon map-plumber" d="M12.916,12.938a7.232,7.232,0,0,0-.987-2.052,7.189,7.189,0,0,0-1,2.052.994.994,0,0,0,1.988,0ZM5.782,4.47H3.794V2.51h.542V1.44H.72V2.51h.542V5.539A1.436,1.436,0,0,0,2.709,6.965H5.782V7.5H6.867V3.935H5.782Zm7.413,4.455V5.9A1.436,1.436,0,0,0,11.75,4.47H8.676V3.936H7.59V7.5H8.676V6.965h1.988v1.96h-.542s-.9.8,0,1.07a15.775,15.775,0,0,0,3.615,0V8.925Z" transform="translate(-0.72 -1.44)" fill="#292929"/>
</svg>
