<svg xmlns="http://www.w3.org/2000/svg" xmlns:xlink="http://www.w3.org/1999/xlink" viewBox="0 0 166.55 124.83"><defs><style>.cls-1{fill:url(#linear-gradient);}</style><linearGradient id="linear-gradient" y1="62.41" x2="166.55" y2="62.41" gradientUnits="userSpaceOnUse"><stop offset="0.01" stop-color="#0a26e8"/><stop offset="1" stop-color="#007aff"/></linearGradient></defs><g id="Layer_2" data-name="Layer 2"><g id="Layer_2-2" data-name="Layer 2"><path class="cls-1" d="M166.39,53.73a2.43,2.43,0,0,0-3.14-1.42l-15.78,5.92a9.51,9.51,0,0,0-1.78.88V51.82h.17a5.06,5.06,0,0,0,5-5V41.55a5.05,5.05,0,0,0-5-5h-1.53c-7.42-7.68-25-13.26-46.27-15A12.87,12.87,0,0,0,88.49,0H78.06a12.87,12.87,0,0,0-9.57,21.47c-21.31,1.78-38.85,7.36-46.27,15H20.69a5,5,0,0,0-5,5v5.22a5.05,5.05,0,0,0,5,5h.17v7.29a9.51,9.51,0,0,0-1.78-.88L3.3,52.31a2.44,2.44,0,0,0-1.72,4.57l15.79,5.91a5.41,5.41,0,0,1,3.49,5.05v38.9A18.11,18.11,0,0,0,39,124.83H127.6a18.1,18.1,0,0,0,18.09-18.09V67.84a5.41,5.41,0,0,1,3.49-5.05L165,56.88A2.44,2.44,0,0,0,166.39,53.73ZM78.06,4.88H88.49a8,8,0,1,1,0,16H85.72V18.08a2.44,2.44,0,0,0-4.88,0v2.78H78.06a8,8,0,0,1,0-16ZM20.53,46.77V41.55a.17.17,0,0,1,.16-.17h99.09a2.44,2.44,0,1,0,0-4.87H30.07a60.84,60.84,0,0,1,16.1-6.42,147.55,147.55,0,0,1,37.11-4.35,147.52,147.52,0,0,1,37.1,4.35,60.84,60.84,0,0,1,16.1,6.42h-6.27a2.44,2.44,0,1,0,0,4.87h15.65a.18.18,0,0,1,.17.17v5.22a.18.18,0,0,1-.17.17H20.69A.17.17,0,0,1,20.53,46.77ZM127.6,120H39A13.2,13.2,0,0,1,28.2,114.4h5.53a2.44,2.44,0,1,0,0-4.88H26a12.73,12.73,0,0,1-.3-2.78V51.82H140.81v54.92a12.73,12.73,0,0,1-.3,2.78H44.16a2.44,2.44,0,1,0,0,4.88h94.19A13.2,13.2,0,0,1,127.6,120Z"/></g></g></svg>