<svg xmlns="http://www.w3.org/2000/svg" xmlns:xlink="http://www.w3.org/1999/xlink" width="90.155" height="123.838" viewBox="0 0 90.155 123.838"><defs><style>.a{fill:url(#a);}</style><linearGradient id="a" x1="0.5" x2="0.5" y2="1" gradientUnits="objectBoundingBox"><stop offset="0.005" stop-color="#0a26e8"/><stop offset="1" stop-color="#007aff"/></linearGradient></defs><g transform="translate(-54.655 0)"><g transform="translate(54.655 0)"><g transform="translate(0 0)"><path class="a" d="M140.037,45.2l4.437-7.4a2.159,2.159,0,0,0-.616-2.958l-7.026-5.053,1.356-8.5a2.2,2.2,0,0,0-1.6-2.465l-8.381-2.1-2.1-8.381a2.094,2.094,0,0,0-2.465-1.6l-8.5,1.356-5.053-7.026a2.159,2.159,0,0,0-2.958-.616L99.732,4.9l-7.4-4.56a2.183,2.183,0,0,0-2.958.616L84.325,7.977l-8.5-1.356a2.2,2.2,0,0,0-2.465,1.6l-2.1,8.381-8.381,2.1a2.094,2.094,0,0,0-1.6,2.465l1.356,8.5-7.026,5.177a2.159,2.159,0,0,0-.616,2.958l4.437,7.4-4.437,7.4a2.183,2.183,0,0,0,.616,2.958l7.026,5.053-1.356,8.5a2.2,2.2,0,0,0,1.6,2.465l8.381,2.1,2.1,8.381a2.094,2.094,0,0,0,2.465,1.6l1.109-.123v38.086a2.2,2.2,0,0,0,1.233,1.972,2.285,2.285,0,0,0,2.342-.247l19.228-15.407,19.228,15.407a1.854,1.854,0,0,0,1.356.493,2.9,2.9,0,0,0,.986-.247,2.2,2.2,0,0,0,1.233-1.972V83.533l1.109.123a2.2,2.2,0,0,0,2.465-1.6l2.1-8.381,8.381-2.1a2.094,2.094,0,0,0,1.6-2.465l-1.356-8.5,7.026-5.053a2.159,2.159,0,0,0,.616-2.958Zm-41.66,58.177L81.367,117.059V82.794l2.958-.493,5.053,7.026a2.035,2.035,0,0,0,2.835.493l7.4-4.437,7.4,4.437a2.183,2.183,0,0,0,2.958-.616l5.053-7.026,2.958.493v34.289l-16.886-13.582A2.218,2.218,0,0,0,98.377,103.377Zm37.1-57.067,4.191,6.779-6.409,4.684a2.346,2.346,0,0,0-.863,2.1l1.233,7.888-7.765,1.849a2.122,2.122,0,0,0-1.6,1.6l-1.849,7.765-7.888-1.233a2.23,2.23,0,0,0-2.1.863l-4.684,6.409-6.779-4.191a1.849,1.849,0,0,0-2.219,0l-6.779,4.191L87.284,78.6a2.346,2.346,0,0,0-2.1-.863L77.3,78.973l-1.849-7.765a2.122,2.122,0,0,0-1.6-1.6l-7.765-1.849,1.233-7.888a2.23,2.23,0,0,0-.863-2.1l-6.409-4.684,4.191-6.779a2.611,2.611,0,0,0,0-2.342l-4.191-6.779,6.409-4.684a2.346,2.346,0,0,0,.863-2.1l-1.233-7.888,7.765-1.849a2.122,2.122,0,0,0,1.6-1.6L77.3,11.305l7.888,1.233a2.23,2.23,0,0,0,2.1-.863l4.684-6.409,6.779,4.191a2.611,2.611,0,0,0,2.342,0l6.779-4.191,4.684,6.409a2.346,2.346,0,0,0,2.1.863l7.888-1.233,1.849,7.765a2.122,2.122,0,0,0,1.6,1.6l7.765,1.849-1.233,7.888a2.23,2.23,0,0,0,.863,2.1l6.409,4.684-4.314,6.779A2.611,2.611,0,0,0,135.476,46.31Z" transform="translate(-54.655 0)"/></g></g><g transform="translate(67.439 12.908)"><g transform="translate(0)"><path class="a" d="M128.438,41.89a32.293,32.293,0,1,0,32.293,32.293A32.324,32.324,0,0,0,128.438,41.89Zm0,60.149A27.917,27.917,0,1,1,156.294,74.06,27.906,27.906,0,0,1,128.438,102.039Z" transform="translate(-96.145 -41.89)"/></g></g><g transform="translate(79.177 25.603)"><g transform="translate(0)"><path class="a" d="M175.377,98a2.331,2.331,0,0,0-1.726-1.479l-11.709-1.849L156.765,84.2a2.308,2.308,0,0,0-3.944,0l-5.177,10.477L136.058,96.4a2.131,2.131,0,0,0-1.109,3.7l8.381,8.135-2.1,11.586a2.23,2.23,0,0,0,.863,2.1,2.046,2.046,0,0,0,2.342.123l10.353-5.423,10.353,5.423a2.9,2.9,0,0,0,.986.247,2.809,2.809,0,0,0,1.356-.37,2.085,2.085,0,0,0,.863-2.1l-1.972-11.463,8.381-8.135A2.2,2.2,0,0,0,175.377,98Zm-12.942,7.888a2.274,2.274,0,0,0-.616,1.972l1.356,8.258-7.4-3.944a2.9,2.9,0,0,0-.986-.247,2.322,2.322,0,0,0-.986.247l-7.4,3.944,1.356-8.258a2.274,2.274,0,0,0-.616-1.972l-6.04-5.793,8.258-1.233a2.1,2.1,0,0,0,1.6-1.233l3.7-7.519,3.7,7.519a2.615,2.615,0,0,0,1.6,1.233l8.258,1.233Z" transform="translate(-134.238 -83.09)"/></g></g></g></svg>