<svg xmlns="http://www.w3.org/2000/svg" xmlns:xlink="http://www.w3.org/1999/xlink" width="93.359" height="111.106" viewBox="0 0 93.359 111.106"><defs><style>.a{fill:url(#a);}</style><linearGradient id="a" x1="0.5" x2="0.5" y2="1" gradientUnits="objectBoundingBox"><stop offset="0.005" stop-color="#0a26e8"/><stop offset="1" stop-color="#007aff"/></linearGradient></defs><g transform="translate(-17.112 0)"><path class="a" d="M110.351,28.608c-.057-3-.111-5.833-.111-8.575a3.889,3.889,0,0,0-3.889-3.889c-16.632,0-29.3-4.78-39.85-15.043a3.888,3.888,0,0,0-5.422,0C50.524,11.364,37.863,16.144,21.232,16.144a3.889,3.889,0,0,0-3.889,3.889c0,2.742-.054,5.577-.111,8.577-.533,27.916-1.263,66.148,45.284,82.282a3.885,3.885,0,0,0,2.547,0C111.613,94.757,110.884,56.524,110.351,28.608ZM63.79,103.091c-39.92-14.5-39.317-46.27-38.781-74.332.032-1.684.063-3.317.085-4.917,15.577-.657,28.033-5.378,38.7-14.667,10.664,9.289,23.122,14.01,38.7,14.667.022,1.6.053,3.231.085,4.914C103.11,56.819,103.713,88.588,63.79,103.091Z"/><path class="a" d="M101.928,80.025,83.158,98.794l-8.01-8.01a3.889,3.889,0,0,0-5.5,5.5l10.76,10.76a3.89,3.89,0,0,0,5.5,0l21.52-21.519a3.889,3.889,0,1,0-5.5-5.5Z" transform="translate(-24.746 -37.981)"/></g></svg>