<svg xmlns="http://www.w3.org/2000/svg" xmlns:xlink="http://www.w3.org/1999/xlink" viewBox="0 0 117.5 125.33"><defs><style>.cls-1{fill:url(#linear-gradient);}.cls-2{fill:url(#linear-gradient-2);}.cls-3{fill:url(#linear-gradient-3);}</style><linearGradient id="linear-gradient" y1="96.94" x2="117.5" y2="96.94" gradientUnits="userSpaceOnUse"><stop offset="0.01" stop-color="#0a26e8"/><stop offset="1" stop-color="#007aff"/></linearGradient><linearGradient id="linear-gradient-2" x1="19.58" y1="32.31" x2="97.92" y2="32.31" xlink:href="#linear-gradient"/><linearGradient id="linear-gradient-3" x1="27.42" y1="36.23" x2="90.08" y2="36.23" xlink:href="#linear-gradient"/></defs><g id="Layer_2" data-name="Layer 2"><g id="Layer_2-2" data-name="Layer 2"><path class="cls-1" d="M111.62,68.54H5.88A5.89,5.89,0,0,0,0,74.42a2,2,0,0,0,3.92,0,2,2,0,0,1,2-2h1.6L2.93,99.74a17.66,17.66,0,0,0,2.28,12l2.62,4.37v7a2.2,2.2,0,0,0,2.21,2.2h97.42a2.2,2.2,0,0,0,2.21-2.2v-7l2.62-4.37a17.66,17.66,0,0,0,2.28-12L110,72.46h1.6a2,2,0,0,1,2,2,2,2,0,1,0,3.92,0A5.89,5.89,0,0,0,111.62,68.54ZM99.14,109.69l-2.33,3.89H91l1.38-3.46a17.7,17.7,0,0,0,1.15-8.49L90.31,72.46h6l4.65,27.92A13.67,13.67,0,0,1,99.14,109.69Zm-18.21,3.89,1.3-4.57a17.72,17.72,0,0,0,.63-6.23L80.45,72.46h5.92l3.29,29.6a13.69,13.69,0,0,1-.9,6.61l-2,4.91Zm-10.32,0,.41-7.16c0-.42,0-.84,0-1.26l-.51-32.7h6L79,103.09a13.66,13.66,0,0,1-.48,4.84l-1.61,5.65Zm-9.9,0V72.46h5.9l.52,32.76c0,.33,0,.66,0,1l-.42,7.38Zm-9.91,0-.46-7.33c0-.36,0-.73,0-1.09l.56-32.7h5.91v41.12Zm-30.11,0-2.33-3.89a13.67,13.67,0,0,1-1.77-9.31l4.65-27.92h6L24,101.63a17.7,17.7,0,0,0,1.15,8.49l1.38,3.46Zm10,0-2-4.91a13.69,13.69,0,0,1-.9-6.61l3.29-29.6h5.92l-2.42,30.3a17.46,17.46,0,0,0,.63,6.27l1.31,4.55Zm9.94,0L39,108a13.63,13.63,0,0,1-.49-4.88L41,72.46h6l-.57,32.63q0,.7,0,1.41l.44,7.08ZM6.8,100.38l4.65-27.92h5.82L12.73,99.74a17.6,17.6,0,0,0,2.27,12l1.12,1.87H10.9l-2.34-3.89A13.72,13.72,0,0,1,6.8,100.38Zm99,21h-94V117.5h94Zm3.19-11.73-2.34,3.89h-5.22l1.12-1.87a17.66,17.66,0,0,0,2.28-12l-4.55-27.28h5.82l4.65,27.92A13.72,13.72,0,0,1,108.94,109.69Z"/><path class="cls-2" d="M21.54,64.63a2,2,0,0,0,2-2V3.92H94V62.67a2,2,0,0,0,3.92,0V3.92A3.93,3.93,0,0,0,94,0H23.5a3.93,3.93,0,0,0-3.92,3.92V62.67A2,2,0,0,0,21.54,64.63Z"/><path class="cls-3" d="M88.12,64.63a2,2,0,0,0,2-2V9.79a2,2,0,0,0-2-2H29.38a2,2,0,0,0-2,2V62.67a2,2,0,1,0,3.91,0V33.29H50.92a2,2,0,0,0,0-3.91H31.33V11.75H56.79V62.67a2,2,0,1,0,3.92,0V33.29H86.17V62.67A2,2,0,0,0,88.12,64.63ZM60.71,29.38V11.75H86.17V29.38Z"/></g></g></svg>