<svg xmlns="http://www.w3.org/2000/svg" xmlns:xlink="http://www.w3.org/1999/xlink" viewBox="0 0 125.26 125.18"><defs><style>.cls-1{fill:url(#linear-gradient);}.cls-2{fill:url(#linear-gradient-2);}.cls-3{fill:url(#linear-gradient-3);}.cls-4{fill:url(#linear-gradient-4);}.cls-5{fill:url(#linear-gradient-5);}.cls-6{fill:url(#linear-gradient-6);}.cls-7{fill:url(#linear-gradient-7);}.cls-8{fill:url(#linear-gradient-8);}.cls-9{fill:url(#linear-gradient-9);}.cls-10{fill:url(#linear-gradient-10);}.cls-11{fill:url(#linear-gradient-11);}.cls-12{fill:url(#linear-gradient-12);}.cls-13{fill:url(#linear-gradient-13);}.cls-14{fill:url(#linear-gradient-14);}.cls-15{fill:url(#linear-gradient-15);}.cls-16{fill:url(#linear-gradient-16);}.cls-17{fill:url(#linear-gradient-17);}</style><linearGradient id="linear-gradient" y1="62.59" x2="125.26" y2="62.59" gradientUnits="userSpaceOnUse"><stop offset="0.01" stop-color="#0a26e8"/><stop offset="1" stop-color="#007aff"/></linearGradient><linearGradient id="linear-gradient-2" x1="10.44" y1="78.21" x2="14.61" y2="78.21" xlink:href="#linear-gradient"/><linearGradient id="linear-gradient-3" x1="18.79" y1="78.21" x2="22.96" y2="78.21" xlink:href="#linear-gradient"/><linearGradient id="linear-gradient-4" x1="27.14" y1="78.21" x2="31.31" y2="78.21" xlink:href="#linear-gradient"/><linearGradient id="linear-gradient-5" x1="35.49" y1="78.21" x2="39.66" y2="78.21" xlink:href="#linear-gradient"/><linearGradient id="linear-gradient-6" x1="43.84" y1="78.21" x2="48.01" y2="78.21" xlink:href="#linear-gradient"/><linearGradient id="linear-gradient-7" x1="52.19" y1="78.21" x2="56.36" y2="78.21" xlink:href="#linear-gradient"/><linearGradient id="linear-gradient-8" x1="60.54" y1="78.21" x2="64.72" y2="78.21" xlink:href="#linear-gradient"/><linearGradient id="linear-gradient-9" x1="68.89" y1="78.21" x2="73.07" y2="78.21" xlink:href="#linear-gradient"/><linearGradient id="linear-gradient-10" x1="77.24" y1="78.21" x2="81.42" y2="78.21" xlink:href="#linear-gradient"/><linearGradient id="linear-gradient-11" x1="85.59" y1="78.21" x2="89.77" y2="78.21" xlink:href="#linear-gradient"/><linearGradient id="linear-gradient-12" x1="93.94" y1="78.21" x2="98.12" y2="78.21" xlink:href="#linear-gradient"/><linearGradient id="linear-gradient-13" x1="102.29" y1="78.21" x2="106.47" y2="78.21" xlink:href="#linear-gradient"/><linearGradient id="linear-gradient-14" x1="110.64" y1="78.21" x2="114.82" y2="78.21" xlink:href="#linear-gradient"/><linearGradient id="linear-gradient-15" x1="41.74" y1="18.7" x2="50.11" y2="18.7" xlink:href="#linear-gradient"/><linearGradient id="linear-gradient-16" x1="58.44" y1="18.7" x2="66.81" y2="18.7" xlink:href="#linear-gradient"/><linearGradient id="linear-gradient-17" x1="75.14" y1="18.7" x2="83.51" y2="18.7" xlink:href="#linear-gradient"/></defs><g id="Layer_2" data-name="Layer 2"><g id="Layer_2-2" data-name="Layer 2"><path class="cls-1" d="M119,37.5h-6.26V20.8h2a4.16,4.16,0,0,0,3.82-2.45,4.35,4.35,0,0,0-.61-4.69L107.6,1.44a4.32,4.32,0,0,0-6.43,0L90.78,13.67a4.37,4.37,0,0,0-.6,4.68A4.19,4.19,0,0,0,94,20.8h2V37.5H29.23V20.8h2a4.17,4.17,0,0,0,3.82-2.45,4.35,4.35,0,0,0-.61-4.69L24.09,1.44A4.27,4.27,0,0,0,20.88,0a4.33,4.33,0,0,0-3.22,1.43L7.28,13.67a4.37,4.37,0,0,0-.6,4.68,4.18,4.18,0,0,0,3.83,2.45h2V37.5H6.26A6.28,6.28,0,0,0,0,43.77v64.71a6.26,6.26,0,0,0,6.26,6.26H8.35v4.18a6.27,6.27,0,0,0,12.53,0v-4.18h83.5v4.18a6.27,6.27,0,0,0,12.53,0v-4.18H119a6.27,6.27,0,0,0,6.27-6.26V43.77A6.29,6.29,0,0,0,119,37.5ZM94,16.63l0-.27L104.41,4.13l10.37,12.23L116.37,15l-1.62,1.62h-4.11a2.08,2.08,0,0,0-2.08,2.09v23H100.2v-23a2.08,2.08,0,0,0-2.08-2.09H94Zm-83.5,0,0-.27L20.9,4.13,31.27,16.36,32.87,15l-1.62,1.62H27.14a2.09,2.09,0,0,0-2.09,2.09v23H16.7v-23a2.08,2.08,0,0,0-2.09-2.09H10.5Zm6.2,102.29a2.09,2.09,0,1,1-4.17,0v-4.18H16.7Zm96,0a2.09,2.09,0,1,1-4.17,0v-4.18h4.17Zm8.35-10.44a2.1,2.1,0,0,1-2.09,2.09H6.26a2.09,2.09,0,0,1-2.08-2.09V43.77a2.08,2.08,0,0,1,2.08-2.09h6.27a4.17,4.17,0,0,0,4.17,4.17h8.35a4.18,4.18,0,0,0,4.18-4.17H96a4.17,4.17,0,0,0,4.17,4.17h8.36a4.17,4.17,0,0,0,4.17-4.17H119a2.09,2.09,0,0,1,2.09,2.09Z"/><path class="cls-2" d="M12.53,50a2.08,2.08,0,0,0-2.09,2.09v52.19a2.09,2.09,0,0,0,4.17,0V52.12A2.08,2.08,0,0,0,12.53,50Z"/><path class="cls-3" d="M20.88,50a2.08,2.08,0,0,0-2.09,2.09v52.19a2.09,2.09,0,0,0,4.17,0V52.12A2.08,2.08,0,0,0,20.88,50Z"/><path class="cls-4" d="M29.23,50a2.08,2.08,0,0,0-2.09,2.09v52.19a2.09,2.09,0,0,0,4.17,0V52.12A2.08,2.08,0,0,0,29.23,50Z"/><path class="cls-5" d="M37.58,50a2.08,2.08,0,0,0-2.09,2.09v52.19a2.09,2.09,0,0,0,4.17,0V52.12A2.08,2.08,0,0,0,37.58,50Z"/><path class="cls-6" d="M45.93,50a2.08,2.08,0,0,0-2.09,2.09v52.19a2.09,2.09,0,0,0,4.17,0V52.12A2.08,2.08,0,0,0,45.93,50Z"/><path class="cls-7" d="M54.28,50a2.08,2.08,0,0,0-2.09,2.09v52.19a2.09,2.09,0,0,0,4.17,0V52.12A2.08,2.08,0,0,0,54.28,50Z"/><path class="cls-8" d="M62.63,50a2.09,2.09,0,0,0-2.09,2.09v52.19a2.09,2.09,0,0,0,4.18,0V52.12A2.09,2.09,0,0,0,62.63,50Z"/><path class="cls-9" d="M71,50a2.09,2.09,0,0,0-2.09,2.09v52.19a2.09,2.09,0,0,0,4.18,0V52.12A2.09,2.09,0,0,0,71,50Z"/><path class="cls-10" d="M79.33,50a2.09,2.09,0,0,0-2.09,2.09v52.19a2.09,2.09,0,0,0,4.18,0V52.12A2.09,2.09,0,0,0,79.33,50Z"/><path class="cls-11" d="M87.68,50a2.09,2.09,0,0,0-2.09,2.09v52.19a2.09,2.09,0,0,0,4.18,0V52.12A2.09,2.09,0,0,0,87.68,50Z"/><path class="cls-12" d="M96,50a2.09,2.09,0,0,0-2.09,2.09v52.19a2.09,2.09,0,0,0,4.18,0V52.12A2.09,2.09,0,0,0,96,50Z"/><path class="cls-13" d="M104.38,50a2.09,2.09,0,0,0-2.09,2.09v52.19a2.09,2.09,0,0,0,4.18,0V52.12A2.09,2.09,0,0,0,104.38,50Z"/><path class="cls-14" d="M112.73,50a2.09,2.09,0,0,0-2.09,2.09v52.19a2.09,2.09,0,0,0,4.18,0V52.12A2.09,2.09,0,0,0,112.73,50Z"/><path class="cls-15" d="M44.45,32.72a2.09,2.09,0,0,0,2.95,0A11.08,11.08,0,0,0,50.1,25a11.11,11.11,0,0,0-2.67-7.72,7.19,7.19,0,0,1-1.5-4.81A7.27,7.27,0,0,1,47.4,7.67a2.09,2.09,0,1,0-2.95-3,11.12,11.12,0,0,0-2.7,7.74,11.12,11.12,0,0,0,2.68,7.72A7.25,7.25,0,0,1,45.93,25a7.27,7.27,0,0,1-1.5,4.81A2.08,2.08,0,0,0,44.45,32.72Z"/><path class="cls-16" d="M61.15,32.72a2.09,2.09,0,0,0,2.95,0A11,11,0,0,0,66.8,25a11.11,11.11,0,0,0-2.67-7.72,7.19,7.19,0,0,1-1.5-4.81A7.27,7.27,0,0,1,64.1,7.67a2.09,2.09,0,1,0-2.95-3,11.12,11.12,0,0,0-2.7,7.74,11.12,11.12,0,0,0,2.68,7.72A7.25,7.25,0,0,1,62.63,25a7.27,7.27,0,0,1-1.5,4.81A2.09,2.09,0,0,0,61.15,32.72Z"/><path class="cls-17" d="M77.85,32.72a2.09,2.09,0,0,0,3,0A11,11,0,0,0,83.5,25a11.11,11.11,0,0,0-2.67-7.72,7.19,7.19,0,0,1-1.5-4.81A7.27,7.27,0,0,1,80.8,7.67a2.09,2.09,0,1,0-3-3,11.12,11.12,0,0,0-2.7,7.74,11.12,11.12,0,0,0,2.68,7.72A7.25,7.25,0,0,1,79.33,25a7.27,7.27,0,0,1-1.5,4.81A2.09,2.09,0,0,0,77.85,32.72Z"/></g></g></svg>