<svg xmlns="http://www.w3.org/2000/svg" xmlns:xlink="http://www.w3.org/1999/xlink" viewBox="0 0 120.83 125"><defs><style>.cls-1{fill:url(#linear-gradient);}.cls-2{fill:url(#linear-gradient-2);}.cls-3{fill:url(#linear-gradient-3);}.cls-4{fill:url(#linear-gradient-4);}.cls-5{fill:url(#linear-gradient-5);}.cls-6{fill:url(#linear-gradient-6);}.cls-7{fill:url(#linear-gradient-7);}.cls-8{fill:url(#linear-gradient-8);}.cls-9{fill:url(#linear-gradient-9);}.cls-10{fill:url(#linear-gradient-10);}.cls-11{fill:url(#linear-gradient-11);}.cls-12{fill:url(#linear-gradient-12);}</style><linearGradient id="linear-gradient" x1="16.67" y1="43.75" x2="33.04" y2="43.75" gradientUnits="userSpaceOnUse"><stop offset="0.01" stop-color="#0a26e8"/><stop offset="1" stop-color="#007aff"/></linearGradient><linearGradient id="linear-gradient-2" x1="87.79" y1="43.75" x2="104.16" y2="43.75" xlink:href="#linear-gradient"/><linearGradient id="linear-gradient-3" x1="0" y1="43.75" x2="21.26" y2="43.75" xlink:href="#linear-gradient"/><linearGradient id="linear-gradient-4" x1="99.57" y1="43.75" x2="120.83" y2="43.75" xlink:href="#linear-gradient"/><linearGradient id="linear-gradient-5" x1="33.33" y1="43.75" x2="44.82" y2="43.75" xlink:href="#linear-gradient"/><linearGradient id="linear-gradient-6" x1="76.01" y1="43.77" x2="87.5" y2="43.77" xlink:href="#linear-gradient"/><linearGradient id="linear-gradient-7" x1="2.08" y1="79.17" x2="118.75" y2="79.17" xlink:href="#linear-gradient"/><linearGradient id="linear-gradient-8" x1="58.33" y1="110.42" x2="62.5" y2="110.42" xlink:href="#linear-gradient"/><linearGradient id="linear-gradient-9" x1="66.66" y1="110.42" x2="70.83" y2="110.42" xlink:href="#linear-gradient"/><linearGradient id="linear-gradient-10" x1="75" y1="110.42" x2="79.16" y2="110.42" xlink:href="#linear-gradient"/><linearGradient id="linear-gradient-11" x1="50" y1="110.42" x2="54.16" y2="110.42" xlink:href="#linear-gradient"/><linearGradient id="linear-gradient-12" x1="41.67" y1="110.42" x2="45.83" y2="110.42" xlink:href="#linear-gradient"/></defs><g id="Layer_2" data-name="Layer 2"><g id="Layer_2-2" data-name="Layer 2"><path class="cls-1" d="M29.47,75a2.08,2.08,0,0,0,3-2.93h0a40.32,40.32,0,0,1,0-56.59,2.08,2.08,0,1,0-3-2.93h0A44.48,44.48,0,0,0,29.47,75Z"/><path class="cls-2" d="M88.41,75a2.09,2.09,0,0,0,3,0,44.48,44.48,0,0,0,0-62.45,2.08,2.08,0,1,0-3,2.93,40.32,40.32,0,0,1,0,56.59,2.07,2.07,0,0,0,0,2.94Z"/><path class="cls-3" d="M19.17,87.5a2.08,2.08,0,0,0,2.08-2.08,2.12,2.12,0,0,0-.6-1.47,57.26,57.26,0,0,1,0-80.4A2.08,2.08,0,0,0,17.7.61h0a61.42,61.42,0,0,0,0,86.26,2.06,2.06,0,0,0,1.48.62Z"/><path class="cls-4" d="M116.66,43.75A56.72,56.72,0,0,1,100.18,84a2.08,2.08,0,1,0,2.95,2.94h0a61.44,61.44,0,0,0,0-86.26,2.08,2.08,0,0,0-3,2.92h0A56.75,56.75,0,0,1,116.66,43.75Z"/><path class="cls-5" d="M42.74,63.69a2.08,2.08,0,0,0,2.08-2.08,2.12,2.12,0,0,0-.6-1.47,23.35,23.35,0,0,1,0-32.78,2.08,2.08,0,0,0-3-2.93,27.52,27.52,0,0,0,0,38.65A2.09,2.09,0,0,0,42.74,63.69Z"/><path class="cls-6" d="M76.63,63.09a2.08,2.08,0,0,0,2.94,0,27.52,27.52,0,0,0,0-38.65,2.08,2.08,0,0,0-3,2.93,23.35,23.35,0,0,1,0,32.78,2.09,2.09,0,0,0,0,3Z"/><path class="cls-7" d="M100,95.83H62.5V54a10.42,10.42,0,1,0-4.17,0V95.83H20.83A18.78,18.78,0,0,0,2.08,114.58v8.34A2.09,2.09,0,0,0,4.17,125H116.66a2.09,2.09,0,0,0,2.09-2.08v-8.34A18.78,18.78,0,0,0,100,95.83ZM54.16,43.75A6.25,6.25,0,1,1,60.41,50,6.25,6.25,0,0,1,54.16,43.75Zm60.42,77.08H6.25v-6.25A14.6,14.6,0,0,1,20.83,100H100a14.6,14.6,0,0,1,14.58,14.58Z"/><circle class="cls-8" cx="60.41" cy="110.42" r="2.08"/><circle class="cls-9" cx="68.75" cy="110.42" r="2.08"/><circle class="cls-10" cx="77.08" cy="110.42" r="2.08"/><circle class="cls-11" cx="52.08" cy="110.42" r="2.08"/><circle class="cls-12" cx="43.75" cy="110.42" r="2.08"/></g></g></svg>