<svg xmlns="http://www.w3.org/2000/svg" xmlns:xlink="http://www.w3.org/1999/xlink" viewBox="0 0 117.5 123.69"><defs><style>.cls-1{fill:url(#linear-gradient);}.cls-2{fill:url(#linear-gradient-2);}.cls-3{fill:url(#linear-gradient-3);}.cls-4{fill:url(#linear-gradient-5);}.cls-5{fill:url(#linear-gradient-6);}.cls-6{fill:url(#linear-gradient-8);}</style><linearGradient id="linear-gradient" x1="18.55" y1="61.84" x2="117.5" y2="61.84" gradientUnits="userSpaceOnUse"><stop offset="0.01" stop-color="#0a26e8"/><stop offset="1" stop-color="#007aff"/></linearGradient><linearGradient id="linear-gradient-2" x1="26.8" y1="44.32" x2="109.25" y2="44.32" xlink:href="#linear-gradient"/><linearGradient id="linear-gradient-3" x1="26.8" y1="99.98" x2="109.25" y2="99.98" xlink:href="#linear-gradient"/><linearGradient id="linear-gradient-5" x1="0" y1="50.51" x2="109.25" y2="50.51" xlink:href="#linear-gradient"/><linearGradient id="linear-gradient-6" x1="13.12" y1="50.51" x2="96.13" y2="50.51" xlink:href="#linear-gradient"/><linearGradient id="linear-gradient-8" x1="92.76" y1="45.37" x2="109.23" y2="45.37" xlink:href="#linear-gradient"/></defs><g id="Layer_2" data-name="Layer 2"><g id="Layer_2-2" data-name="Layer 2"><path class="cls-1" d="M113.38,123.69H22.67a4.13,4.13,0,0,1-4.12-4.13V61.21a2.06,2.06,0,1,1,4.12,0v58.35h90.71V4.12H22.67V22.68a2.06,2.06,0,0,1-4.12,0V4.12A4.13,4.13,0,0,1,22.67,0h90.71a4.13,4.13,0,0,1,4.12,4.12V119.56A4.13,4.13,0,0,1,113.38,123.69Zm-6.19-8.25H28.86a2.06,2.06,0,0,1-2.06-2.06V86.58a2.06,2.06,0,0,1,2.06-2.06h78.33a2.06,2.06,0,0,1,2.06,2.06v26.8A2.06,2.06,0,0,1,107.19,115.44Zm-76.27-4.12h74.21V88.64H30.92ZM107.19,80.4H28.86a2.07,2.07,0,0,1,0-4.13h76.27V12.37H28.86a2.06,2.06,0,1,1,0-4.12h78.33a2.06,2.06,0,0,1,2.06,2.06v68A2.06,2.06,0,0,1,107.19,80.4Z"/><path class="cls-2" d="M107.19,80.4H28.86a2.07,2.07,0,0,1,0-4.13h76.27V12.37H28.86a2.06,2.06,0,1,1,0-4.12h78.33a2.06,2.06,0,0,1,2.06,2.06v68A2.06,2.06,0,0,1,107.19,80.4Z"/><path class="cls-3" d="M107.19,115.44H28.86a2.06,2.06,0,0,1-2.06-2.06V86.58a2.06,2.06,0,0,1,2.06-2.06h78.33a2.06,2.06,0,0,1,2.06,2.06v26.8A2.06,2.06,0,0,1,107.19,115.44Zm-76.27-4.12h74.21V88.64H30.92Z"/><path class="cls-2" d="M107.19,80.4H28.86a2.07,2.07,0,0,1,0-4.13h76.27V12.37H30.92V22.68a2.06,2.06,0,0,1-4.12,0V10.31a2.06,2.06,0,0,1,2.06-2.06h78.33a2.06,2.06,0,0,1,2.06,2.06v68A2.06,2.06,0,0,1,107.19,80.4Z"/><path class="cls-4" d="M107.19,80.4H28.86A2.08,2.08,0,0,1,27,79.23L.2,23.57a2.06,2.06,0,0,1,1.86-3H80.4a2.08,2.08,0,0,1,1.85,1.17l26.8,55.66a2.06,2.06,0,0,1-1.86,3Zm-77-4.13h73.76L79.1,24.74H5.34Z"/><path class="cls-5" d="M94.07,72.15H34A2,2,0,0,1,32.19,71L13.33,31.82a2.06,2.06,0,0,1,1.85-3h60A2.07,2.07,0,0,1,77.07,30L95.93,69.2a2.05,2.05,0,0,1-1.86,3ZM35.33,68H90.79L73.92,33H18.46Z"/><path class="cls-3" d="M107.19,115.44H28.86a2.06,2.06,0,0,1-2.06-2.06V86.58a2.06,2.06,0,0,1,2.06-2.06h78.33a2.06,2.06,0,0,1,2.06,2.06v26.8A2.06,2.06,0,0,1,107.19,115.44Zm-76.27-4.12h74.21V88.64H30.92Z"/><path class="cls-6" d="M94.83,53.6a2.07,2.07,0,0,1-1.91-1.28,2,2,0,0,1,.45-2.24l12.37-12.37a2.06,2.06,0,0,1,2.91,2.92L96.28,53A2,2,0,0,1,94.83,53.6Z"/></g></g></svg>